<svg width="375" height="667" viewBox="0 0 375 667" fill="none" xmlns="http://www.w3.org/2000/svg">
<g clip-path="url(#clip0)">
<rect width="375" height="667" fill="white"/>
<g clip-path="url(#clip1)">
<path d="M316.135 261.214C185.488 160.187 3.72701 156.058 -128.876 254.493C-198.974 306.53 -253.318 386.141 -243.43 507.357C-239.936 550.233 -230.21 585.407 -216.02 614.201C-158.548 730.931 77.506 726.436 90.6158 726.419C99.1092 726.411 107.603 726.601 116.096 726.991C145.845 728.361 175.438 732.114 204.592 738.215C246.157 746.906 299.072 751.273 346.351 734.812C354.384 732.028 362.189 728.623 369.697 724.628C395.679 710.777 424.764 697.54 441.767 664.685C454.546 640.028 463.855 609.109 468.336 570.6C484.642 430.356 403.16 328.509 316.135 261.214Z" fill="#F2F2F2"/>
<path d="M8.55247 522.614V454.846H-56.7729V522.614H-81.2695V728.157H32.3069V522.614H8.55247Z" fill="#575A89"/>
<path d="M19.6874 632.833H-68.6504V728.902H19.6874V632.833Z" fill="#3F3D56"/>
<path d="M220.774 236V259.086H75.0535V236H32V729H263V236H220.774Z" fill="#3F3D56"/>
<path opacity="0.1" d="M230.511 235.897H201.56V258.984H230.511V235.897Z" fill="black"/>
<path opacity="0.1" d="M61.2577 235.897H32.3066V728.901H61.2577V235.897Z" fill="black"/>
<path opacity="0.1" d="M230.511 425.801H201.56V728.901H230.511V425.801Z" fill="black"/>
<path d="M105.798 298.454H64.2275V316.327H105.798V298.454Z" fill="#FF6584"/>
<path d="M236.571 352H195V369.873H236.571V352Z" fill="#FF6584"/>
<path opacity="0.1" d="M11.522 538.254H-59.7422V568.043H11.522V538.254Z" fill="black"/>
<path opacity="0.1" d="M323.302 394.523H252.038V424.312H323.302V394.523Z" fill="black"/>
<path opacity="0.1" d="M323.302 457.824H252.038V487.613H323.302V457.824Z" fill="black"/>
<path opacity="0.1" d="M323.302 521.125H252.038V550.914H323.302V521.125Z" fill="black"/>
<path opacity="0.1" d="M323.302 584.426H252.038V614.215H323.302V584.426Z" fill="black"/>
<path opacity="0.1" d="M323.302 647.728H252.038V677.516H323.302V647.728Z" fill="black"/>
<path d="M363.588 399.686V298H289.471V399.686H263V729H389V399.686H363.588Z" fill="#3F3D56"/>
<path opacity="0.1" d="M335.18 384.842H318.849V466.016H335.18V384.842Z" fill="black"/>
<path opacity="0.1" d="M316.622 466.016H300.29V728.901H316.622V466.016Z" fill="black"/>
<path opacity="0.1" d="M388.628 597.831H344.83V623.896H388.628V597.831Z" fill="black"/>
<path d="M387.885 559.105H346.314V576.979H387.885V559.105Z" fill="#FF6584"/>
<path d="M518 577.149C518 643.497 478.683 666.663 430.184 666.663C381.685 666.663 342.368 643.497 342.368 577.149C342.368 510.801 430.184 426.396 430.184 426.396C430.184 426.396 518 510.801 518 577.149Z" fill="#6C63FF"/>
<path d="M369.5 475V497.006H335V737H407V506.141V497.006V475H369.5Z" fill="#575A89"/>
<path opacity="0.1" d="M416.264 572H345V601.789H416.264V572Z" fill="black"/>
<path opacity="0.1" d="M323.302 331.222H252.038V361.01H323.302V331.222Z" fill="black"/>
</g>
</g>
<defs>
<clipPath id="clip0">
<rect width="375" height="667" fill="white"/>
</clipPath>
<clipPath id="clip1">
<rect width="1137" height="683" fill="white" transform="translate(-619 183)"/>
</clipPath>
</defs>
</svg>
