<svg width="375" height="667" viewBox="0 0 375 667" fill="none" xmlns="http://www.w3.org/2000/svg">
<g clip-path="url(#clip0)">
<rect width="375" height="667" fill="white"/>
<path d="M12.5571 -182.065C-75.878 -250.44 -198.912 -253.234 -288.67 -186.614C-336.119 -151.396 -372.905 -97.5159 -366.212 -15.4776C-363.846 13.5406 -357.263 37.3462 -347.658 56.834C-308.755 135.836 -148.971 132.794 -140.097 132.782C-134.348 132.777 -128.598 132.906 -122.849 133.169C-102.712 134.096 -82.6806 136.636 -62.9468 140.766C-34.8112 146.648 1.00717 149.603 33.0101 138.462C38.4474 136.578 43.7309 134.274 48.8129 131.57C66.3998 122.196 86.0873 113.237 97.597 91.0012C106.247 74.3131 112.548 53.3879 115.581 27.3252C126.619 -67.5914 71.4641 -136.52 12.5571 -182.065Z" fill="#F2F2F2" fill-opacity="0.74"/>
<path d="M128.143 -50.3295C95.3007 -78.7343 47.6423 -82.4397 11.4101 -58.5127C-7.7432 -45.864 -23.1584 -25.7496 -22.3108 6.21296C-22.0118 17.5185 -19.9657 26.8922 -16.6558 34.6556C-3.25106 66.1268 58.7852 68.3517 62.2272 68.5363C64.4571 68.6566 66.6841 68.8291 68.9083 69.0539C76.6987 69.8426 84.4136 71.2547 91.9793 73.2768C102.766 76.1578 116.595 78.0674 129.245 74.4282C131.394 73.8133 133.492 73.0321 135.521 72.0917C142.541 68.8304 150.368 65.7751 155.306 57.3959C159.016 51.1074 161.906 43.1255 163.638 33.0813C169.941 -3.49844 150.019 -31.409 128.143 -50.3295Z" fill="#A7A5D3" fill-opacity="0.8"/>
</g>
<defs>
<clipPath id="clip0">
<rect width="375" height="667" fill="white"/>
</clipPath>
</defs>
</svg>
