<svg width="386" height="482" viewBox="0 0 386 482" fill="none" xmlns="http://www.w3.org/2000/svg">
<path d="M282.286 350.199C350.11 291.991 372.168 196.099 334.496 115.054C314.581 72.2107 278.331 34.704 213.009 26.6958C189.904 23.8615 170.2 25.1723 153.388 29.5462C85.2421 47.2508 61.8191 172.863 60.395 179.814C59.471 184.316 58.4416 188.798 57.3067 193.257C53.3285 208.876 48.1043 224.151 41.6839 238.937C32.5339 260.019 24.435 287.59 27.9905 314.449C28.5877 319.011 29.5388 323.521 30.8354 327.937C35.336 343.223 39.1718 360.086 54.7247 372.69C66.3956 382.158 81.7636 390.472 101.682 397.056C174.225 421.028 237.108 388.971 282.286 350.199Z" fill="#F2F2F2" fill-opacity="0.74"/>
<path d="M160.462 419.433C188.009 398.303 198.607 361.583 185.722 329.346C178.911 312.305 165.65 296.986 140.484 292.488C131.583 290.896 123.912 290.984 117.299 292.322C90.4898 297.736 78.7287 345.955 78.0282 348.621C77.5739 350.348 77.0792 352.064 76.544 353.769C74.6682 359.742 72.3165 365.555 69.5112 371.153C65.5131 379.134 61.7844 389.655 62.5912 400.148C62.7257 401.93 62.9985 403.699 63.4073 405.44C64.8273 411.464 65.9558 418.086 71.7197 423.306C76.0447 427.227 81.8283 430.779 89.4139 433.757C117.04 444.601 142.113 433.508 160.462 419.433Z" fill="#A7A5D3" fill-opacity="0.8"/>
</svg>
