<svg width="35" height="35" viewBox="0 0 35 35" fill="none" xmlns="http://www.w3.org/2000/svg">
<path d="M13.125 2.91699C13.9304 2.91699 14.5833 3.56991 14.5833 4.37533V5.83366H20.4167V4.37533C20.4167 3.56991 21.0696 2.91699 21.875 2.91699C22.6804 2.91699 23.3333 3.56991 23.3333 4.37533V5.83366H27.7083C29.3192 5.83366 30.625 7.13949 30.625 8.75033V27.7087C30.625 29.3195 29.3192 30.6253 27.7083 30.6253H7.29167C5.68084 30.6253 4.375 29.3195 4.375 27.7087V8.75033C4.375 7.13949 5.68084 5.83366 7.29167 5.83366H11.6667V4.37533C11.6667 3.56991 12.3196 2.91699 13.125 2.91699ZM11.6667 8.75033H7.29167V13.1253H27.7083V8.75033H23.3333V10.2087C23.3333 11.0141 22.6804 11.667 21.875 11.667C21.0696 11.667 20.4167 11.0141 20.4167 10.2087V8.75033H14.5833V10.2087C14.5833 11.0141 13.9304 11.667 13.125 11.667C12.3196 11.667 11.6667 11.0141 11.6667 10.2087V8.75033ZM27.7083 16.042H7.29167V27.7087H27.7083V16.042Z" fill="#0D0D0D" fill-opacity="0.5"/>
</svg>
