<svg width="202" height="111" viewBox="0 0 202 111" fill="none" xmlns="http://www.w3.org/2000/svg">
<path d="M75.2705 76.2797C78.4365 76.2797 81.003 73.7177 81.003 70.5573C81.003 67.3969 78.4365 64.835 75.2705 64.835C72.1046 64.835 69.5381 67.3969 69.5381 70.5573C69.5381 73.7177 72.1046 76.2797 75.2705 76.2797Z" fill="#009966"/>
<path d="M74.7244 72.9726L73.0088 70.7706L74.0065 69.9959L74.819 71.0386L77.5633 68.1465L78.4812 69.0145L74.7244 72.9726Z" fill="white"/>
<path d="M184.813 18.1825H99.5947V0H184.813V18.1825Z" fill="white"/>
<path d="M110.637 13.7104C113.192 13.7104 115.264 11.6425 115.264 9.09154C115.264 6.5406 113.192 4.47266 110.637 4.47266C108.081 4.47266 106.01 6.5406 106.01 9.09154C106.01 11.6425 108.081 13.7104 110.637 13.7104Z" fill="#009966"/>
<path d="M121.323 6.01172C121.118 6.01172 120.922 6.09283 120.778 6.23719C120.633 6.38156 120.552 6.57737 120.552 6.78153C120.552 6.9857 120.633 7.18151 120.778 7.32588C120.922 7.47024 121.118 7.55135 121.323 7.55135H177.627C177.832 7.55086 178.027 7.46955 178.172 7.32523C178.316 7.18092 178.397 6.98538 178.397 6.78153C178.397 6.57768 178.316 6.38215 178.172 6.23784C178.027 6.09352 177.832 6.0122 177.627 6.01172H121.323Z" fill="#3F3D56"/>
<path d="M121.323 10.6309C121.118 10.6304 120.922 10.7111 120.777 10.8552C120.632 10.9992 120.55 11.1949 120.55 11.399C120.549 11.6032 120.63 11.7992 120.775 11.9439C120.919 12.0885 121.115 12.1701 121.319 12.1705H156.916C157.017 12.1707 157.117 12.1509 157.211 12.1123C157.305 12.0736 157.39 12.017 157.462 11.9455C157.534 11.874 157.59 11.789 157.629 11.6956C157.668 11.6021 157.688 11.5019 157.688 11.4007C157.688 11.2995 157.668 11.1993 157.629 11.1058C157.59 11.0123 157.534 10.9274 157.462 10.8559C157.39 10.7844 157.305 10.7277 157.211 10.6891C157.117 10.6505 157.017 10.6307 156.916 10.6309H121.323Z" fill="#3F3D56"/>
<path d="M184.813 18.1825H99.5947V0H184.813V18.1825ZM100.896 16.8837H183.512V1.29875H100.896V16.8837Z" fill="#CCCCCC"/>
<path d="M184.813 40.911H99.5947V22.7285H184.813V40.911Z" fill="white"/>
<path d="M110.637 36.438C113.192 36.438 115.264 34.37 115.264 31.8191C115.264 29.2681 113.192 27.2002 110.637 27.2002C108.081 27.2002 106.01 29.2681 106.01 31.8191C106.01 34.37 108.081 36.438 110.637 36.438Z" fill="#E6E6E6"/>
<path d="M121.323 28.7402C121.118 28.7402 120.922 28.8213 120.778 28.9657C120.633 29.1101 120.552 29.3059 120.552 29.51C120.552 29.7142 120.633 29.91 120.778 30.0544C120.922 30.1988 121.118 30.2799 121.323 30.2799H177.627C177.832 30.2794 178.027 30.1981 178.172 30.0537C178.316 29.9094 178.397 29.7139 178.397 29.51C178.397 29.3062 178.316 29.1107 178.172 28.9664C178.027 28.822 177.832 28.7407 177.627 28.7402H121.323Z" fill="#E6E6E6"/>
<path d="M121.323 33.3594C121.118 33.3589 120.922 33.4396 120.777 33.5837C120.632 33.7278 120.55 33.9234 120.55 34.1276C120.549 34.3317 120.63 34.5277 120.775 34.6724C120.919 34.817 121.115 34.8986 121.319 34.899H156.916C157.017 34.8992 157.117 34.8794 157.211 34.8408C157.305 34.8022 157.39 34.7455 157.462 34.674C157.534 34.6025 157.59 34.5176 157.629 34.4241C157.668 34.3306 157.688 34.2304 157.688 34.1292C157.688 34.028 157.668 33.9278 157.629 33.8343C157.59 33.7408 157.534 33.6559 157.462 33.5844C157.39 33.5129 157.305 33.4562 157.211 33.4176C157.117 33.379 157.017 33.3592 156.916 33.3594H121.323Z" fill="#E6E6E6"/>
<path d="M184.813 40.911H99.5947V22.7285H184.813V40.911ZM100.896 39.6123H183.512V24.0273H100.896V39.6123Z" fill="#E6E6E6"/>
<path d="M184.813 63.6385H99.5947V45.4561H184.813V63.6385Z" fill="white"/>
<path d="M110.637 59.1665C113.192 59.1665 115.264 57.0985 115.264 54.5476C115.264 51.9967 113.192 49.9287 110.637 49.9287C108.081 49.9287 106.01 51.9967 106.01 54.5476C106.01 57.0985 108.081 59.1665 110.637 59.1665Z" fill="#E6E6E6"/>
<path d="M121.323 51.4678C121.118 51.4678 120.922 51.5489 120.778 51.6932C120.633 51.8376 120.552 52.0334 120.552 52.2376C120.552 52.4418 120.633 52.6376 120.778 52.7819C120.922 52.9263 121.118 53.0074 121.323 53.0074H177.627C177.832 53.0069 178.027 52.9256 178.172 52.7813C178.316 52.637 178.397 52.4414 178.397 52.2376C178.397 52.0337 178.316 51.8382 178.172 51.6939C178.027 51.5496 177.832 51.4683 177.627 51.4678H121.323Z" fill="#E6E6E6"/>
<path d="M121.323 56.0869C121.118 56.0865 120.922 56.1672 120.777 56.3112C120.632 56.4553 120.55 56.6509 120.55 56.8551C120.549 57.0593 120.63 57.2552 120.775 57.3999C120.919 57.5446 121.115 57.6261 121.319 57.6265H156.916C157.017 57.6267 157.117 57.6069 157.211 57.5683C157.305 57.5297 157.39 57.473 157.462 57.4015C157.534 57.33 157.59 57.2451 157.629 57.1516C157.668 57.0581 157.688 56.9579 157.688 56.8567C157.688 56.7555 157.668 56.6553 157.629 56.5618C157.59 56.4684 157.534 56.3834 157.462 56.3119C157.39 56.2404 157.305 56.1838 157.211 56.1451C157.117 56.1065 157.017 56.0867 156.916 56.0869H121.323Z" fill="#E6E6E6"/>
<path d="M184.813 63.6385H99.5947V45.4561H184.813V63.6385ZM100.896 62.3398H183.512V46.7548H100.896V62.3398Z" fill="#E6E6E6"/>
<path d="M43.5323 67.953C43.3381 67.7038 43.2009 67.4151 43.1305 67.1072C43.06 66.7993 43.0581 66.4798 43.1248 66.1711C43.1915 65.8624 43.3251 65.572 43.5164 65.3205C43.7076 65.0689 43.9518 64.8623 44.2317 64.7151L43.7799 59.7996L46.7053 58.7969L47.2458 65.7476C47.4623 66.2333 47.4927 66.7815 47.3314 67.2882C47.17 67.7949 46.8281 68.2249 46.3704 68.4968C45.9126 68.7686 45.3709 68.8634 44.8478 68.7632C44.3248 68.663 43.8567 68.3747 43.5323 67.953Z" fill="#FFB8B8"/>
<path d="M46.6728 39.7399C46.6728 39.7399 48.6804 35.5342 50.4643 37.0136C52.2482 38.493 48.0186 50.9285 48.0186 50.9285L47.3753 63.0006L43.9849 62.6623L43.0264 50.9008L46.6728 39.7399Z" fill="#CCCCCC"/>
<path d="M19.7441 101.962L22.2608 103.995L31.3162 95.2729L27.602 92.2715L19.7441 101.962Z" fill="#FFB8B8"/>
<path d="M19.7678 100.623L24.7242 104.628L24.7244 104.628C25.562 105.305 26.0959 106.287 26.2087 107.356C26.3216 108.426 26.004 109.497 25.3259 110.333L25.2429 110.436L17.1279 103.879L19.7678 100.623Z" fill="#2F2E41"/>
<path d="M54.7214 107.607H57.9592L59.4996 95.1396L54.7207 95.1399L54.7214 107.607Z" fill="#FFB8B8"/>
<path d="M53.8955 106.552L60.2722 106.552H60.2724C61.3502 106.552 62.3838 106.979 63.1458 107.74C63.9079 108.501 64.3361 109.532 64.3362 110.608V110.74L53.8957 110.74L53.8955 106.552Z" fill="#2F2E41"/>
<path d="M60.4025 49.1602C60.4025 49.1602 66.477 56.5422 65.1565 63.9243C63.8359 71.3063 62.7795 76.8428 62.7795 76.8428L60.6666 93.4524C60.6666 93.4524 61.459 97.9759 60.4025 99.1416C60.4025 99.1416 61.9872 101.889 59.082 102.944C56.1768 103.998 54.6092 102.579 54.6092 102.579C54.6092 102.579 52.4792 99.5163 53.7998 98.7253L54.3561 66.1294L33.1992 93.7161C33.1992 93.7161 32.8104 97.0718 30.0996 97.1076L26.8606 99.5163L23.1631 97.4071L25.0119 95.0343C25.0119 95.0343 23.9554 92.3979 26.3324 91.8706L40.0661 73.9427L43.4995 64.7152C43.4995 64.7152 45.3483 57.5968 50.3664 54.6967V51.6108L60.4025 49.1602Z" fill="#2F2E41"/>
<path d="M49.9703 36.3733C50.77 35.4299 51.8893 34.8131 53.1151 34.6403C54.341 34.4675 55.5877 34.7508 56.6177 35.4364L56.8371 35.5824C59.1814 38.2325 60.7571 41.4709 61.3943 44.9486L62.3834 50.3465L49.9703 53.0306L47.0602 43.0121C46.6909 41.7405 46.7798 40.3798 47.3115 39.1669C47.8432 37.9539 48.784 36.9654 49.9703 36.3733V36.3733Z" fill="#CCCCCC"/>
<path d="M70.3647 69.0998C70.0206 68.9875 69.7053 68.8012 69.4411 68.5542C69.1768 68.3071 68.9701 68.0052 68.8354 67.6697C68.7007 67.3342 68.6413 66.9733 68.6615 66.6125C68.6816 66.2516 68.7807 65.8995 68.9519 65.5811L65.3711 61.2064L67.5036 58.3857L72.4735 64.6346C72.9904 64.9571 73.3708 65.4577 73.5426 66.0415C73.7145 66.6253 73.6658 67.2518 73.4059 67.8022C73.1459 68.3526 72.6928 68.7887 72.1323 69.0278C71.5718 69.267 70.9429 69.2926 70.3647 69.0998H70.3647Z" fill="#FFB8B8"/>
<path d="M55.252 40.3274C55.252 40.3274 54.4597 35.0545 57.1008 35.3182C59.7419 35.5818 63.7035 50.0822 63.7035 50.0822L70.8345 61.9463L67.4011 63.7918L58.9496 53.246L55.252 40.3274Z" fill="#CCCCCC"/>
<path d="M60.0886 32.6193H47.5119C47.2532 32.619 47.0052 32.5163 46.8223 32.3337C46.6393 32.1511 46.5364 31.9035 46.5361 31.6452V26.2338C46.5361 24.3106 47.3015 22.4662 48.6637 21.1063C50.026 19.7464 51.8737 18.9824 53.8003 18.9824C55.7268 18.9824 57.5745 19.7464 58.9368 21.1063C60.2991 22.4662 61.0644 24.3106 61.0644 26.2338V31.6452C61.0641 31.9035 60.9612 32.1511 60.7783 32.3337C60.5954 32.5163 60.3473 32.619 60.0886 32.6193Z" fill="#2F2E41"/>
<path d="M55.2936 32.4932C58.235 32.4932 60.6194 30.113 60.6194 27.1768C60.6194 24.2406 58.235 21.8604 55.2936 21.8604C52.3522 21.8604 49.9678 24.2406 49.9678 27.1768C49.9678 30.113 52.3522 32.4932 55.2936 32.4932Z" fill="#FFB8B8"/>
<path d="M62.7834 26.775H56.0809L56.0122 25.6729L55.6685 26.775H54.6365L54.5003 24.5906L53.8192 26.775H51.8223V26.6668C51.8223 23.5039 54.0689 20.9307 56.8303 20.9307H57.7753C60.5367 20.9307 62.7834 23.5039 62.7834 26.6668V26.775Z" fill="#2F2E41"/>
<path d="M56.3581 33.6295C56.2762 33.6294 56.1944 33.6231 56.1134 33.6107L48.1357 32.3841V24.0894C48.1357 23.2421 48.4729 22.4295 49.0732 21.8303C49.6734 21.2311 50.4874 20.8945 51.3363 20.8945H56.9176L56.7002 21.1154C53.6752 24.1898 55.9542 29.1748 57.5819 31.8727C57.7014 32.0667 57.7553 32.2937 57.7359 32.5206C57.7164 32.7474 57.6245 32.962 57.4737 33.1328C57.3351 33.2917 57.1635 33.4184 56.9709 33.5042C56.7782 33.59 56.569 33.6328 56.3581 33.6295Z" fill="#2F2E41"/>
<path d="M196.268 14.806C199.434 14.806 202 12.2441 202 9.08369C202 5.92332 199.434 3.36133 196.268 3.36133C193.102 3.36133 190.535 5.92332 190.535 9.08369C190.535 12.2441 193.102 14.806 196.268 14.806Z" fill="#009966"/>
<path d="M195.721 11.499L194.005 9.29698L195.003 8.52227L195.816 9.56495L198.56 6.67285L199.478 7.54085L195.721 11.499Z" fill="white"/>
<path d="M82.8328 111H0.21684C0.15933 111 0.104176 110.977 0.0635108 110.937C0.0228454 110.896 0 110.841 0 110.784C0 110.726 0.0228454 110.671 0.0635108 110.631C0.104176 110.59 0.15933 110.567 0.21684 110.567H82.8328C82.8903 110.567 82.9455 110.59 82.9862 110.631C83.0268 110.671 83.0497 110.726 83.0497 110.784C83.0497 110.841 83.0268 110.896 82.9862 110.937C82.9455 110.977 82.8903 111 82.8328 111Z" fill="#CCCCCC"/>
</svg>
