<svg width="68" height="84" viewBox="0 0 68 84" fill="none" xmlns="http://www.w3.org/2000/svg">
<g filter="url(#filter0_d)">
<g filter="url(#filter1_d)">
<circle cx="34" cy="36" r="30" fill="#F4F4F4"/>
</g>
<circle cx="34" cy="36" r="24" fill="#6B5DA9"/>
</g>
<path d="M18.7407 81.68H20.0487C20.3047 81.68 20.4847 81.628 20.5887 81.524C20.7007 81.412 20.7567 81.228 20.7567 80.972V77.312C20.7567 77.056 20.7007 76.876 20.5887 76.772C20.4847 76.66 20.3047 76.604 20.0487 76.604H18.7407C18.6527 76.604 18.6087 76.648 18.6087 76.736V81.548C18.6087 81.636 18.6527 81.68 18.7407 81.68ZM17.0847 82.748V75.536C17.0847 75.368 17.1687 75.284 17.3367 75.284H20.3007C20.9247 75.284 21.4087 75.456 21.7527 75.8C22.1047 76.136 22.2807 76.616 22.2807 77.24V81.044C22.2807 81.668 22.1047 82.152 21.7527 82.496C21.4087 82.832 20.9247 83 20.3007 83H17.3367C17.1687 83 17.0847 82.916 17.0847 82.748ZM26.5255 83H25.4575C24.8255 83 24.3375 82.832 23.9935 82.496C23.6495 82.16 23.4775 81.676 23.4775 81.044V78.836C23.4775 78.204 23.6495 77.72 23.9935 77.384C24.3375 77.048 24.8255 76.88 25.4575 76.88H26.5255C27.1495 76.88 27.6335 77.052 27.9775 77.396C28.3295 77.732 28.5055 78.212 28.5055 78.836V81.044C28.5055 81.668 28.3295 82.152 27.9775 82.496C27.6335 82.832 27.1495 83 26.5255 83ZM25.6855 81.692H26.2975C26.5535 81.692 26.7335 81.64 26.8375 81.536C26.9495 81.432 27.0055 81.252 27.0055 80.996V78.884C27.0055 78.628 26.9495 78.448 26.8375 78.344C26.7335 78.24 26.5535 78.188 26.2975 78.188H25.6855C25.4295 78.188 25.2495 78.24 25.1455 78.344C25.0415 78.448 24.9895 78.628 24.9895 78.884V80.996C24.9895 81.252 25.0415 81.432 25.1455 81.536C25.2495 81.64 25.4295 81.692 25.6855 81.692ZM30.975 83H29.955C29.787 83 29.703 82.916 29.703 82.748V77.132C29.703 76.964 29.787 76.88 29.955 76.88H30.975C31.143 76.88 31.227 76.964 31.227 77.132V77.528H31.275C31.451 77.096 31.843 76.88 32.451 76.88H32.835C34.091 76.88 34.719 77.532 34.719 78.836V82.748C34.719 82.916 34.631 83 34.455 83H33.447C33.279 83 33.195 82.916 33.195 82.748V78.908C33.195 78.652 33.139 78.472 33.027 78.368C32.923 78.256 32.743 78.2 32.487 78.2H32.055C31.503 78.2 31.227 78.504 31.227 79.112V82.748C31.227 82.916 31.143 83 30.975 83ZM38.1322 83H37.8442C37.2122 83 36.7242 82.832 36.3802 82.496C36.0362 82.16 35.8642 81.676 35.8642 81.044V78.836C35.8642 78.204 36.0362 77.72 36.3802 77.384C36.7242 77.048 37.2122 76.88 37.8442 76.88H40.6162C40.7922 76.88 40.8802 76.964 40.8802 77.132V82.748C40.8802 82.916 40.7922 83 40.6162 83H39.6082C39.4402 83 39.3562 82.916 39.3562 82.748V82.352H39.3082C39.2202 82.568 39.0642 82.732 38.8402 82.844C38.6162 82.948 38.3802 83 38.1322 83ZM39.3562 80.768V78.332C39.3562 78.244 39.3082 78.2 39.2122 78.2H38.0842C37.8282 78.2 37.6482 78.256 37.5442 78.368C37.4402 78.472 37.3882 78.652 37.3882 78.908V80.972C37.3882 81.228 37.4402 81.412 37.5442 81.524C37.6482 81.628 37.8282 81.68 38.0842 81.68H38.5282C39.0802 81.68 39.3562 81.376 39.3562 80.768ZM42.3272 78.2H41.8472C41.7512 78.2 41.6832 78.184 41.6432 78.152C41.6112 78.12 41.5952 78.056 41.5952 77.96V77.132C41.5952 76.964 41.6792 76.88 41.8472 76.88H42.3272C42.4152 76.88 42.4592 76.836 42.4592 76.748V75.608C42.4592 75.44 42.5472 75.356 42.7232 75.356H43.7312C43.8992 75.356 43.9832 75.44 43.9832 75.608V76.748C43.9832 76.836 44.0312 76.88 44.1272 76.88H45.0632C45.2312 76.88 45.3152 76.964 45.3152 77.132V77.96C45.3152 78.048 45.2952 78.112 45.2552 78.152C45.2232 78.184 45.1592 78.2 45.0632 78.2H44.1272C44.0312 78.2 43.9832 78.244 43.9832 78.332V80.984C43.9832 81.232 44.0392 81.412 44.1512 81.524C44.2632 81.628 44.4472 81.68 44.7032 81.68H45.1832C45.3512 81.68 45.4352 81.764 45.4352 81.932V82.76C45.4352 82.848 45.4152 82.912 45.3752 82.952C45.3432 82.984 45.2792 83 45.1832 83H44.4512C43.8192 83 43.3272 82.832 42.9752 82.496C42.6312 82.16 42.4592 81.68 42.4592 81.056V78.332C42.4592 78.244 42.4152 78.2 42.3272 78.2ZM50.9376 83H48.2856C47.6536 83 47.1656 82.832 46.8216 82.496C46.4776 82.16 46.3056 81.676 46.3056 81.044V78.836C46.3056 78.204 46.4776 77.72 46.8216 77.384C47.1656 77.048 47.6536 76.88 48.2856 76.88H49.2336C49.8656 76.88 50.3536 77.048 50.6976 77.384C51.0416 77.72 51.2136 78.204 51.2136 78.836V80.36C51.2136 80.528 51.1296 80.612 50.9616 80.612H47.9496C47.8536 80.612 47.8056 80.656 47.8056 80.744V81.008C47.8056 81.256 47.8576 81.436 47.9616 81.548C48.0736 81.652 48.2576 81.704 48.5136 81.704H50.9376C51.1056 81.704 51.1896 81.792 51.1896 81.968V82.76C51.1896 82.848 51.1696 82.912 51.1296 82.952C51.0976 82.984 51.0336 83 50.9376 83ZM47.9496 79.592H49.5816C49.6696 79.592 49.7136 79.548 49.7136 79.46V78.884C49.7136 78.628 49.6616 78.448 49.5576 78.344C49.4536 78.24 49.2736 78.188 49.0176 78.188H48.5136C48.2576 78.188 48.0776 78.24 47.9736 78.344C47.8696 78.448 47.8176 78.628 47.8176 78.884V79.46C47.8176 79.548 47.8616 79.592 47.9496 79.592Z" fill="black" fill-opacity="0.5"/>
<line x1="34" y1="27" x2="34" y2="45" stroke="white" stroke-width="2"/>
<line x1="43.2871" y1="36" x2="24.0014" y2="36" stroke="white" stroke-width="2"/>
<defs>
<filter id="filter0_d" x="0" y="0" width="68" height="68" filterUnits="userSpaceOnUse" color-interpolation-filters="sRGB">
<feFlood flood-opacity="0" result="BackgroundImageFix"/>
<feColorMatrix in="SourceAlpha" type="matrix" values="0 0 0 0 0 0 0 0 0 0 0 0 0 0 0 0 0 0 127 0"/>
<feOffset dy="-2"/>
<feGaussianBlur stdDeviation="2"/>
<feColorMatrix type="matrix" values="0 0 0 0 0 0 0 0 0 0 0 0 0 0 0 0 0 0 0.25 0"/>
<feBlend mode="normal" in2="BackgroundImageFix" result="effect1_dropShadow"/>
<feBlend mode="normal" in="SourceGraphic" in2="effect1_dropShadow" result="shape"/>
</filter>
<filter id="filter1_d" x="0" y="6" width="68" height="68" filterUnits="userSpaceOnUse" color-interpolation-filters="sRGB">
<feFlood flood-opacity="0" result="BackgroundImageFix"/>
<feColorMatrix in="SourceAlpha" type="matrix" values="0 0 0 0 0 0 0 0 0 0 0 0 0 0 0 0 0 0 127 0"/>
<feOffset dy="4"/>
<feGaussianBlur stdDeviation="2"/>
<feColorMatrix type="matrix" values="0 0 0 0 0 0 0 0 0 0 0 0 0 0 0 0 0 0 0.25 0"/>
<feBlend mode="normal" in2="BackgroundImageFix" result="effect1_dropShadow"/>
<feBlend mode="normal" in="SourceGraphic" in2="effect1_dropShadow" result="shape"/>
</filter>
</defs>
</svg>
