<svg width="148" height="141" viewBox="0 0 148 141" fill="none" xmlns="http://www.w3.org/2000/svg">
<g clip-path="url(#clip0)">
<path d="M89.9728 33.4572H89.2022V12.2653C89.2022 9.01235 87.915 5.89262 85.6236 3.59243C83.3323 1.29224 80.2246 4.1046e-06 76.9842 0H32.2591C30.6546 -4.06471e-06 29.0658 0.317243 27.5835 0.933629C26.1011 1.55001 24.7542 2.45347 23.6196 3.5924C22.4851 4.73134 21.5851 6.08345 20.9711 7.57155C20.3571 9.05964 20.041 10.6546 20.041 12.2653V128.526C20.041 130.136 20.357 131.731 20.9711 133.219C21.5851 134.708 22.485 136.06 23.6196 137.199C24.7542 138.338 26.1011 139.241 27.5834 139.857C29.0658 140.474 30.6546 140.791 32.2591 140.791H76.9841C80.2245 140.791 83.3323 139.499 85.6236 137.199C87.9149 134.898 89.2022 131.779 89.2022 128.526V48.542H89.9728L89.9728 33.4572Z" fill="#E6E6E6"/>
<path d="M77.4769 3.19141H71.6388C71.9072 3.85217 72.0097 4.56908 71.9372 5.27898C71.8646 5.98887 71.6193 6.66996 71.2228 7.26225C70.8263 7.85454 70.2907 8.33986 69.6634 8.67544C69.036 9.01102 68.3361 9.18657 67.6252 9.18662H42.0028C41.2919 9.18657 40.592 9.01102 39.9646 8.67544C39.3372 8.33986 38.8017 7.85455 38.4052 7.26226C38.0087 6.66997 37.7633 5.98887 37.6908 5.27898C37.6183 4.56908 37.7208 3.85217 37.9892 3.19141H32.5364C30.1165 3.1914 27.7957 4.15643 26.0846 5.87418C24.3734 7.59193 23.4121 9.92171 23.4121 12.351V128.441C23.4121 129.644 23.6481 130.835 24.1067 131.946C24.5652 133.057 25.2373 134.067 26.0846 134.918C26.9318 135.768 27.9377 136.443 29.0447 136.903C30.1517 137.364 31.3382 137.6 32.5364 137.6H77.4769C78.6751 137.6 79.8616 137.364 80.9686 136.903C82.0756 136.443 83.0815 135.768 83.9287 134.918C84.776 134.067 85.4481 133.057 85.9066 131.946C86.3652 130.835 86.6012 129.644 86.6012 128.441V12.351C86.6012 11.1481 86.3652 9.95705 85.9066 8.84576C85.4481 7.73447 84.776 6.72472 83.9287 5.87418C83.0815 5.02363 82.0756 4.34895 80.9686 3.88863C79.8616 3.42832 78.6751 3.19141 77.4769 3.19141V3.19141Z" fill="white"/>
<path d="M147.807 141H0.192708C0.141599 141 0.0925826 140.98 0.0564428 140.944C0.020303 140.907 0 140.858 0 140.807C0 140.755 0.020303 140.706 0.0564428 140.67C0.0925826 140.634 0.141599 140.613 0.192708 140.613H147.807C147.858 140.613 147.907 140.634 147.944 140.67C147.98 140.706 148 140.755 148 140.807C148 140.858 147.98 140.907 147.944 140.944C147.907 140.98 147.858 141 147.807 141Z" fill="#3F3D56"/>
<path d="M82.2521 35.3063H27.74C27.4723 35.306 27.2157 35.1991 27.0265 35.0091C26.8372 34.8191 26.7308 34.5616 26.7305 34.2929V20.7185C26.7308 20.4498 26.8372 20.1922 27.0265 20.0022C27.2157 19.8123 27.4723 19.7054 27.74 19.7051H82.2521C82.5198 19.7054 82.7764 19.8123 82.9656 20.0022C83.1549 20.1922 83.2613 20.4498 83.2616 20.7185V34.2929C83.2613 34.5616 83.1548 34.8191 82.9656 35.0091C82.7763 35.1991 82.5198 35.306 82.2521 35.3063ZM27.74 20.1104C27.5794 20.1106 27.4254 20.1747 27.3119 20.2887C27.1983 20.4027 27.1344 20.5573 27.1343 20.7185V34.2929C27.1344 34.4541 27.1983 34.6087 27.3119 34.7227C27.4254 34.8366 27.5794 34.9008 27.74 34.9009H82.2521C82.4127 34.9008 82.5667 34.8366 82.6802 34.7227C82.7938 34.6087 82.8577 34.4541 82.8578 34.2929V20.7185C82.8577 20.5573 82.7938 20.4027 82.6802 20.2887C82.5667 20.1747 82.4127 20.1106 82.2521 20.1104H27.74Z" fill="#3F3D56"/>
<path d="M82.2521 89.0151H27.74C27.4723 89.0148 27.2157 88.9079 27.0265 88.718C26.8372 88.528 26.7308 88.2704 26.7305 88.0017V62.8747C26.7308 62.606 26.8372 62.3485 27.0265 62.1585C27.2157 61.9685 27.4723 61.8616 27.74 61.8613H82.2521C82.5198 61.8616 82.7763 61.9685 82.9656 62.1585C83.1548 62.3485 83.2613 62.606 83.2616 62.8747V88.0017C83.2613 88.2704 83.1548 88.528 82.9656 88.718C82.7763 88.9079 82.5198 89.0148 82.2521 89.0151ZM27.74 62.2667C27.5794 62.2669 27.4254 62.331 27.3119 62.445C27.1983 62.559 27.1344 62.7135 27.1343 62.8747V88.0017C27.1344 88.1629 27.1983 88.3175 27.3119 88.4315C27.4254 88.5455 27.5794 88.6096 27.74 88.6098H82.2521C82.4127 88.6096 82.5667 88.5455 82.6802 88.4315C82.7938 88.3175 82.8577 88.1629 82.8578 88.0017V62.8747C82.8576 62.7135 82.7938 62.559 82.6802 62.445C82.5667 62.331 82.4127 62.2669 82.2521 62.2667L27.74 62.2667Z" fill="#3F3D56"/>
<path d="M81.8475 56.3844H57.6198C57.3522 56.3841 57.0956 56.2772 56.9064 56.0872C56.7171 55.8972 56.6107 55.6397 56.6104 55.371V41.7966C56.6107 41.5279 56.7171 41.2703 56.9064 41.0804C57.0956 40.8904 57.3522 40.7835 57.6198 40.7832H81.8475C82.1151 40.7835 82.3717 40.8904 82.561 41.0804C82.7502 41.2703 82.8567 41.5279 82.857 41.7966V55.371C82.8567 55.6397 82.7502 55.8972 82.561 56.0872C82.3717 56.2772 82.1151 56.3841 81.8475 56.3844ZM57.6198 41.1886C57.4592 41.1887 57.3053 41.2528 57.1917 41.3668C57.0782 41.4808 57.0143 41.6354 57.0141 41.7966V55.371C57.0143 55.5322 57.0782 55.6868 57.1917 55.8007C57.3053 55.9147 57.4592 55.9789 57.6198 55.979H81.8475C82.0081 55.9789 82.1621 55.9147 82.2756 55.8007C82.3892 55.6868 82.453 55.5322 82.4532 55.371V41.7966C82.453 41.6354 82.3892 41.4808 82.2756 41.3668C82.1621 41.2528 82.0081 41.1887 81.8475 41.1885L57.6198 41.1886Z" fill="#E6E6E6"/>
<path d="M51.9676 121.849H27.74C27.4723 121.848 27.2157 121.741 27.0265 121.551C26.8372 121.361 26.7308 121.104 26.7305 120.835V95.5056C26.7308 95.2369 26.8372 94.9793 27.0265 94.7894C27.2157 94.5994 27.4723 94.4925 27.74 94.4922H51.9676C52.2353 94.4925 52.4919 94.5994 52.6811 94.7894C52.8703 94.9793 52.9768 95.2369 52.9771 95.5056V120.835C52.9768 121.104 52.8703 121.361 52.6811 121.551C52.4919 121.741 52.2353 121.848 51.9676 121.849ZM27.74 94.8975C27.5794 94.8977 27.4254 94.9618 27.3119 95.0758C27.1983 95.1898 27.1344 95.3444 27.1343 95.5056V120.835C27.1344 120.996 27.1983 121.151 27.3119 121.265C27.4254 121.379 27.5794 121.443 27.74 121.443H51.9676C52.1282 121.443 52.2822 121.379 52.3957 121.265C52.5093 121.151 52.5732 120.996 52.5733 120.835V95.5056C52.5732 95.3444 52.5093 95.1898 52.3957 95.0758C52.2822 94.9618 52.1282 94.8977 51.9676 94.8975H27.74Z" fill="#E6E6E6"/>
<path d="M81.8475 121.849H57.6198C57.3522 121.848 57.0956 121.741 56.9064 121.551C56.7171 121.361 56.6107 121.104 56.6104 120.835V95.5056C56.6107 95.2369 56.7171 94.9793 56.9064 94.7894C57.0956 94.5994 57.3522 94.4925 57.6198 94.4922H81.8475C82.1151 94.4925 82.3717 94.5994 82.561 94.7894C82.7502 94.9793 82.8567 95.2369 82.857 95.5056V120.835C82.8567 121.104 82.7502 121.361 82.561 121.551C82.3717 121.741 82.1151 121.848 81.8475 121.849ZM57.6198 94.8975C57.4592 94.8977 57.3053 94.9618 57.1917 95.0758C57.0782 95.1898 57.0143 95.3444 57.0141 95.5056V120.835C57.0143 120.996 57.0782 121.151 57.1917 121.265C57.3053 121.379 57.4592 121.443 57.6198 121.443H81.8475C82.0081 121.443 82.1621 121.379 82.2756 121.265C82.3892 121.151 82.453 120.996 82.4532 120.835V95.5056C82.453 95.3444 82.3892 95.1898 82.2756 95.0758C82.1621 94.9618 82.0081 94.8977 81.8475 94.8975H57.6198Z" fill="#E6E6E6"/>
<path d="M35.8055 74.8907C38.0765 74.8907 39.9176 73.0426 39.9176 70.7628C39.9176 68.4829 38.0765 66.6348 35.8055 66.6348C33.5344 66.6348 31.6934 68.4829 31.6934 70.7628C31.6934 73.0426 33.5344 74.8907 35.8055 74.8907Z" fill="#009966"/>
<path d="M45.3025 68.0107C45.1208 68.0107 44.9464 68.0832 44.8179 68.2123C44.6894 68.3413 44.6172 68.5163 44.6172 68.6987C44.6172 68.8812 44.6894 69.0562 44.8179 69.1852C44.9464 69.3142 45.1208 69.3867 45.3025 69.3867H77.6119C77.7934 69.3863 77.9673 69.3136 78.0955 69.1847C78.2236 69.0557 78.2956 68.8809 78.2956 68.6987C78.2956 68.5165 78.2236 68.3418 78.0955 68.2128C77.9673 68.0838 77.7934 68.0112 77.6119 68.0107H45.3025Z" fill="#009966"/>
<path d="M45.303 72.1387C45.213 72.1385 45.1238 72.1561 45.0406 72.1905C44.9574 72.2249 44.8817 72.2754 44.818 72.3392C44.7542 72.4029 44.7036 72.4786 44.6689 72.562C44.6343 72.6454 44.6164 72.7349 44.6162 72.8252C44.616 72.9156 44.6336 73.0051 44.6678 73.0886C44.7021 73.1722 44.7524 73.2481 44.8159 73.3121C44.8794 73.3762 44.9549 73.427 45.038 73.4618C45.121 73.4965 45.2101 73.5145 45.3001 73.5147H59.2058C59.2959 73.5148 59.3852 73.4971 59.4685 73.4626C59.5517 73.4281 59.6274 73.3775 59.6912 73.3136C59.755 73.2497 59.8055 73.1738 59.8401 73.0902C59.8746 73.0067 59.8923 72.9171 59.8923 72.8267C59.8923 72.7362 59.8746 72.6467 59.8401 72.5631C59.8055 72.4796 59.755 72.4037 59.6912 72.3398C59.6274 72.2759 59.5517 72.2252 59.4685 72.1907C59.3852 72.1562 59.2959 72.1385 59.2058 72.1387H45.303Z" fill="#009966"/>
<path d="M32.6516 78.7383C32.1303 78.7383 31.7061 79.047 31.7061 79.4263C31.7061 79.8056 32.1303 80.1143 32.6516 80.1143H77.2286C77.7499 80.1143 78.1742 79.8056 78.1742 79.4263C78.1742 79.047 77.7499 78.7383 77.2286 78.7383H32.6516Z" fill="#CCCCCC"/>
<path d="M32.6516 82.8662C32.1303 82.8662 31.7061 83.1749 31.7061 83.5542C31.7061 83.9335 32.1303 84.2422 32.6516 84.2422H77.2286C77.7499 84.2422 78.1742 83.9335 78.1742 83.5542C78.1742 83.1749 77.7499 82.8662 77.2286 82.8662H32.6516Z" fill="#CCCCCC"/>
<path d="M36.2098 31.1124C38.4808 31.1124 40.3219 29.2643 40.3219 26.9844C40.3219 24.7046 38.4808 22.8564 36.2098 22.8564C33.9387 22.8564 32.0977 24.7046 32.0977 26.9844C32.0977 29.2643 33.9387 31.1124 36.2098 31.1124Z" fill="#009966"/>
<path d="M45.7072 24.2324C45.5257 24.2329 45.3518 24.3055 45.2236 24.4345C45.0954 24.5635 45.0234 24.7382 45.0234 24.9204C45.0234 25.1026 45.0954 25.2774 45.2236 25.4063C45.3518 25.5353 45.5257 25.608 45.7072 25.6084H78.0165C78.1066 25.6087 78.1958 25.5912 78.2791 25.5568C78.3624 25.5225 78.4382 25.472 78.502 25.4082C78.5659 25.3444 78.6166 25.2687 78.6513 25.1852C78.6859 25.1018 78.7039 25.0123 78.7041 24.9219C78.7043 24.8315 78.6867 24.7419 78.6524 24.6583C78.6181 24.5747 78.5677 24.4987 78.5041 24.4347C78.4405 24.3707 78.365 24.3198 78.2818 24.2851C78.1986 24.2504 78.1095 24.2325 78.0194 24.2324C78.0184 24.2324 78.0175 24.2324 78.0165 24.2324H45.7072Z" fill="#009966"/>
<path d="M45.7072 28.3604C45.5257 28.3608 45.3518 28.4335 45.2236 28.5624C45.0954 28.6914 45.0234 28.8662 45.0234 29.0483C45.0234 29.2305 45.0954 29.4053 45.2236 29.5343C45.3518 29.6632 45.5257 29.7359 45.7072 29.7363H59.61C59.7001 29.7366 59.7893 29.7191 59.8726 29.6847C59.9559 29.6504 60.0317 29.5999 60.0955 29.5361C60.1594 29.4724 60.2101 29.3966 60.2447 29.3131C60.2794 29.2297 60.2973 29.1402 60.2975 29.0498C60.2977 28.9594 60.2802 28.8698 60.2458 28.7862C60.2115 28.7026 60.1611 28.6267 60.0976 28.5626C60.034 28.4986 59.9584 28.4478 59.8753 28.4131C59.7921 28.3784 59.7029 28.3604 59.6129 28.3604C59.6119 28.3604 59.6109 28.3604 59.61 28.3604H45.7072Z" fill="#009966"/>
<path d="M51.9454 56.3868H29.2178L34.5663 47.0868C34.6622 46.9201 34.8001 46.7817 34.9661 46.6855C35.1322 46.5892 35.3205 46.5386 35.5122 46.5386C35.704 46.5386 35.8923 46.5892 36.0584 46.6855C36.2244 46.7817 36.3623 46.9201 36.4581 47.0868L38.743 51.0596L42.628 44.3046C42.748 44.0959 42.9206 43.9226 43.1285 43.8021C43.3364 43.6816 43.5722 43.6182 43.8123 43.6182C44.0523 43.6182 44.2881 43.6816 44.496 43.8021C44.7039 43.9226 44.8765 44.0959 44.9965 44.3046L51.9454 56.3868ZM29.9171 55.9815H51.2461L44.6468 44.5072C44.5622 44.3602 44.4406 44.238 44.2941 44.1531C44.1476 44.0682 43.9815 44.0235 43.8123 44.0235C43.6431 44.0235 43.477 44.0682 43.3305 44.1531C43.184 44.238 43.0624 44.3602 42.9778 44.5072L38.743 51.8703L36.1084 47.2895C36.048 47.1844 35.9611 47.0972 35.8565 47.0365C35.7518 46.9759 35.6331 46.9439 35.5123 46.9439C35.3914 46.9439 35.2727 46.9759 35.1681 47.0365C35.0634 47.0972 34.9765 47.1844 34.9161 47.2895L29.9171 55.9815Z" fill="#E6E6E6"/>
<path d="M81.0187 56.3868H58.291L63.6396 47.0868C63.7354 46.9201 63.8733 46.7817 64.0394 46.6855C64.2054 46.5892 64.3938 46.5386 64.5855 46.5386C64.7772 46.5386 64.9656 46.5892 65.1316 46.6855C65.2976 46.7817 65.4355 46.9201 65.5314 47.0868L67.8162 51.0596L71.7012 44.3046C71.8213 44.0959 71.9939 43.9226 72.2018 43.8021C72.4097 43.6816 72.6455 43.6182 72.8855 43.6182C73.1256 43.6182 73.3614 43.6816 73.5693 43.8021C73.7771 43.9226 73.9498 44.0959 74.0698 44.3046L81.0187 56.3868ZM58.9904 55.9815H80.3193L73.72 44.5072C73.6355 44.3602 73.5138 44.238 73.3673 44.1531C73.2208 44.0682 73.0547 44.0235 72.8855 44.0235C72.7164 44.0235 72.5502 44.0682 72.4037 44.1531C72.2572 44.238 72.1356 44.3602 72.051 44.5072L67.8162 51.8703L65.1816 47.2895C65.1212 47.1844 65.0343 47.0972 64.9297 47.0365C64.825 46.9758 64.7063 46.9439 64.5855 46.9439C64.4646 46.9439 64.3459 46.9758 64.2413 47.0365C64.1367 47.0972 64.0498 47.1844 63.9894 47.2895L58.9904 55.9815Z" fill="#E6E6E6"/>
<path d="M51.9676 56.3844H27.74C27.4723 56.3841 27.2157 56.2772 27.0265 56.0872C26.8372 55.8972 26.7308 55.6397 26.7305 55.371V41.7966C26.7308 41.5279 26.8372 41.2703 27.0265 41.0804C27.2157 40.8904 27.4723 40.7835 27.74 40.7832H51.9676C52.2353 40.7835 52.4919 40.8904 52.6811 41.0804C52.8704 41.2703 52.9768 41.5279 52.9771 41.7966V55.371C52.9768 55.6397 52.8703 55.8972 52.6811 56.0872C52.4919 56.2772 52.2353 56.3841 51.9676 56.3844ZM27.7399 41.1886C27.5794 41.1887 27.4254 41.2528 27.3118 41.3668C27.1983 41.4808 27.1344 41.6354 27.1343 41.7966V55.371C27.1344 55.5322 27.1983 55.6868 27.3118 55.8007C27.4254 55.9147 27.5794 55.9789 27.7399 55.979H51.9676C52.1282 55.9789 52.2822 55.9147 52.3957 55.8007C52.5093 55.6868 52.5732 55.5322 52.5733 55.371V41.7966C52.5732 41.6354 52.5093 41.4808 52.3957 41.3668C52.2822 41.2528 52.1282 41.1887 51.9676 41.1885L27.7399 41.1886Z" fill="#E6E6E6"/>
<path d="M32.9023 99.7158C32.8122 99.7157 32.723 99.7333 32.6397 99.7679C32.5564 99.8024 32.4807 99.853 32.417 99.9169C32.3532 99.9808 32.3026 100.057 32.2681 100.14C32.2336 100.224 32.2158 100.313 32.2158 100.404C32.2158 100.494 32.2336 100.584 32.2681 100.667C32.3026 100.751 32.3532 100.827 32.417 100.891C32.4807 100.955 32.5564 101.005 32.6397 101.04C32.723 101.074 32.8122 101.092 32.9023 101.092H46.8051C46.9869 101.092 47.1612 101.019 47.2898 100.89C47.4183 100.761 47.4905 100.586 47.4905 100.404C47.4905 100.221 47.4183 100.046 47.2898 99.9173C47.1612 99.7883 46.9869 99.7158 46.8051 99.7158H32.9023Z" fill="#E6E6E6"/>
<path d="M32.9023 103.77C32.8122 103.769 32.723 103.787 32.6397 103.822C32.5564 103.856 32.4807 103.907 32.417 103.971C32.3532 104.035 32.3026 104.11 32.2681 104.194C32.2336 104.278 32.2158 104.367 32.2158 104.458C32.2158 104.548 32.2336 104.638 32.2681 104.721C32.3026 104.805 32.3532 104.881 32.417 104.944C32.4807 105.008 32.5564 105.059 32.6397 105.094C32.723 105.128 32.8122 105.146 32.9023 105.146H46.8051C46.9867 105.145 47.1607 105.073 47.289 104.944C47.4173 104.815 47.4893 104.64 47.4893 104.458C47.4893 104.275 47.4173 104.1 47.289 103.971C47.1607 103.842 46.9867 103.77 46.8051 103.77H32.9023Z" fill="#E6E6E6"/>
<path d="M39.853 116.625C38.9998 116.625 38.1657 116.371 37.4563 115.895C36.7469 115.419 36.194 114.743 35.8674 113.952C35.5409 113.16 35.4555 112.29 35.622 111.45C35.7884 110.61 36.1993 109.838 36.8026 109.232C37.4059 108.627 38.1746 108.214 39.0114 108.047C39.8483 107.88 40.7156 107.966 41.5039 108.294C42.2922 108.621 42.966 109.176 43.44 109.889C43.914 110.601 44.167 111.438 44.167 112.295C44.1657 113.443 43.7108 114.543 42.902 115.355C42.0933 116.167 40.9968 116.624 39.853 116.625ZM39.853 108.369C39.0797 108.369 38.3237 108.599 37.6807 109.031C37.0376 109.462 36.5365 110.075 36.2405 110.792C35.9446 111.51 35.8671 112.299 36.018 113.06C36.1689 113.822 36.5413 114.521 37.0881 115.07C37.635 115.619 38.3317 115.993 39.0902 116.144C39.8487 116.296 40.6349 116.218 41.3494 115.921C42.0639 115.624 42.6746 115.121 43.1042 114.475C43.5339 113.83 43.7632 113.071 43.7632 112.295C43.762 111.254 43.3496 110.256 42.6166 109.52C41.8836 108.784 40.8897 108.37 39.853 108.369V108.369Z" fill="#E6E6E6"/>
<path d="M76.6858 116.626C76.7759 116.626 76.8652 116.608 76.9485 116.574C77.0317 116.539 77.1074 116.489 77.1712 116.425C77.235 116.361 77.2855 116.285 77.3201 116.202C77.3546 116.118 77.3723 116.028 77.3723 115.938C77.3723 115.848 77.3546 115.758 77.3201 115.674C77.2855 115.591 77.235 115.515 77.1712 115.451C77.1074 115.387 77.0317 115.337 76.9485 115.302C76.8652 115.268 76.7759 115.25 76.6858 115.25H62.783C62.6012 115.25 62.4269 115.322 62.2984 115.452C62.1699 115.581 62.0977 115.756 62.0977 115.938C62.0977 116.12 62.1699 116.295 62.2984 116.425C62.4269 116.554 62.6012 116.626 62.783 116.626H76.6858Z" fill="#E6E6E6"/>
<path d="M76.6858 112.572C76.7759 112.572 76.8652 112.555 76.9485 112.52C77.0317 112.486 77.1074 112.435 77.1712 112.371C77.235 112.307 77.2855 112.231 77.3201 112.148C77.3546 112.064 77.3723 111.975 77.3723 111.884C77.3723 111.794 77.3546 111.704 77.3201 111.621C77.2855 111.537 77.235 111.461 77.1712 111.397C77.1074 111.333 77.0317 111.283 76.9485 111.248C76.8652 111.214 76.7759 111.196 76.6858 111.196H62.783C62.6012 111.196 62.4269 111.269 62.2984 111.398C62.1699 111.527 62.0977 111.702 62.0977 111.884C62.0977 112.067 62.1699 112.242 62.2984 112.371C62.4269 112.5 62.6012 112.572 62.783 112.572H76.6858Z" fill="#E6E6E6"/>
<path d="M69.7339 99.7158C70.5871 99.7158 71.4212 99.9698 72.1306 100.446C72.84 100.922 73.393 101.598 73.7195 102.389C74.046 103.181 74.1314 104.051 73.965 104.891C73.7985 105.731 73.3876 106.503 72.7843 107.109C72.181 107.714 71.4123 108.127 70.5755 108.294C69.7387 108.461 68.8713 108.375 68.083 108.047C67.2947 107.72 66.621 107.165 66.147 106.452C65.6729 105.74 65.4199 104.903 65.4199 104.046V104.046C65.4212 102.898 65.8761 101.798 66.6849 100.986C67.4936 100.174 68.5901 99.7171 69.7339 99.7158ZM69.7339 107.972C70.5072 107.972 71.2632 107.742 71.9063 107.31C72.5493 106.879 73.0505 106.266 73.3464 105.549C73.6424 104.831 73.7198 104.042 73.5689 103.281C73.4181 102.519 73.0457 101.82 72.4988 101.271C71.952 100.722 71.2553 100.348 70.4968 100.197C69.7383 100.045 68.952 100.123 68.2376 100.42C67.5231 100.717 66.9124 101.22 66.4827 101.866C66.0531 102.511 65.8237 103.27 65.8237 104.046V104.046C65.8249 105.087 66.2373 106.085 66.9703 106.821C67.7034 107.557 68.6972 107.971 69.7339 107.972V107.972Z" fill="#E6E6E6"/>
<path d="M113.695 138.072H110.576L109.092 125.994L113.696 125.994L113.695 138.072Z" fill="#FFB8B8"/>
<path d="M107.429 137.178H114.364V140.98H104.561V140.058C104.561 139.294 104.863 138.561 105.401 138.021C105.939 137.481 106.669 137.178 107.429 137.178Z" fill="#2F2E41"/>
<path d="M126.163 138.072H123.044L121.56 125.994L126.163 125.994L126.163 138.072Z" fill="#FFB8B8"/>
<path d="M119.896 137.178H126.831V140.98H117.027V140.058C117.027 139.294 117.33 138.561 117.868 138.021C118.406 137.481 119.135 137.178 119.896 137.178Z" fill="#2F2E41"/>
<path d="M108.261 103.254C108.515 103.015 108.714 102.722 108.844 102.397C108.973 102.072 109.03 101.722 109.011 101.373C108.991 101.023 108.896 100.682 108.73 100.374C108.565 100.065 108.335 99.7968 108.055 99.5874L109.392 94.2814L106.378 92.6797L104.595 100.199C104.276 100.694 104.149 101.289 104.237 101.872C104.326 102.455 104.625 102.985 105.077 103.361C105.528 103.738 106.102 103.935 106.689 103.915C107.276 103.895 107.835 103.66 108.261 103.254Z" fill="#FFB8B8"/>
<path d="M127.272 93.9863L127.018 111.865L126.763 135.364L121.166 134.853L118.367 102.415L114.805 134.853H109.026L108.444 102.16L110.48 95.008L127.272 93.9863Z" fill="#2F2E41"/>
<path d="M109.922 95.1175L109.84 95.0805L113.03 73.1763L111.408 66.5557C111.324 66.2112 111.368 65.8477 111.533 65.534C111.698 65.2202 111.972 64.9781 112.303 64.8535L115.221 63.7551L116.251 60.9092L124.385 61.789L124.585 64.0132C125.466 64.297 132.724 66.7235 132.224 69.4884C131.729 72.2173 128.811 80.8032 128.663 81.2383L128.152 93.5514L128.089 93.583C128.013 93.621 122.407 96.3881 116.316 96.3877C114.172 96.3876 111.966 96.0442 109.922 95.1175Z" fill="#3F3D56"/>
<path d="M104.49 97.4164L107.055 80.9415C107.07 80.8445 108.587 71.2002 109.09 68.1698C109.61 65.0411 112.022 65.0049 112.047 65.0049H113.374L114.927 72.0205L111.868 86.0968L109.045 97.7616L104.49 97.4164Z" fill="#3F3D56"/>
<path d="M121.123 95.7909C121.139 95.4411 121.232 95.0993 121.394 94.7894C121.557 94.4795 121.785 94.2091 122.062 93.9973C122.34 93.7854 122.661 93.6373 123.002 93.5633C123.342 93.4893 123.695 93.4912 124.035 93.569L127.19 89.1055L130.36 90.3686L125.816 96.6091C125.648 97.174 125.28 97.6574 124.781 97.9677C124.281 98.2781 123.686 98.3938 123.107 98.2929C122.529 98.192 122.007 97.8816 121.641 97.4205C121.276 96.9594 121.091 96.3795 121.123 95.7909Z" fill="#FFB8B8"/>
<path d="M124.584 91.952L130.194 82.4811L127.908 76.3631L131.021 68.0303L131.136 68.0797C131.211 68.1121 132.979 68.9044 133.242 71.7417L136.819 83.0272L127.272 95.4599L124.584 91.952Z" fill="#3F3D56"/>
<path d="M125.138 56.4412C126.689 53.5923 125.646 50.0204 122.808 48.463C119.97 46.9057 116.412 47.9527 114.861 50.8016C113.309 53.6505 114.352 57.2224 117.19 58.7798C120.028 60.3371 123.586 59.2901 125.138 56.4412Z" fill="#FFB8B8"/>
<path d="M116.067 50.758C116.674 51.4782 117.7 51.6814 118.646 51.7647C120.568 51.9339 123.363 51.6594 125.241 51.2241C125.375 52.5284 125.01 53.9348 125.775 55.0078C126.134 53.7088 126.342 52.3727 126.397 51.0258C126.42 50.4482 126.411 49.8506 126.177 49.3204C125.943 48.7901 125.433 48.34 124.846 48.3353C125.282 48.003 125.793 47.7837 126.334 47.6966L124.474 46.7586L124.952 46.2664L121.585 46.0596L122.561 45.4378C121.093 45.2354 119.608 45.1883 118.131 45.2974C117.445 45.3482 116.728 45.4451 116.172 45.8441C115.616 46.2431 115.295 47.0362 115.64 47.622C115.208 47.6932 114.801 47.874 114.458 48.1471C114.115 48.4203 113.848 48.7769 113.68 49.183C113.432 49.8136 113.455 50.5141 113.531 51.1861C113.658 52.2609 113.907 53.3177 114.273 54.3357" fill="#2F2E41"/>
</g>
<defs>
<clipPath id="clip0">
<rect width="148" height="141" fill="white"/>
</clipPath>
</defs>
</svg>
