<svg width="35" height="35" viewBox="0 0 35 35" fill="none" xmlns="http://www.w3.org/2000/svg">
<path d="M16.5315 3.28535C17.084 2.79421 17.9167 2.79421 18.4692 3.28535L31.5942 14.952C32.1962 15.4871 32.2504 16.4089 31.7153 17.0109C31.1802 17.6128 30.2585 17.6671 29.6565 17.132L29.167 16.6969V27.7087C29.167 29.3195 27.8612 30.6253 26.2503 30.6253H8.75034C7.13951 30.6253 5.83367 29.3195 5.83367 27.7087V16.6969L5.3442 17.132C4.74223 17.6671 3.82046 17.6128 3.28537 17.0109C2.75028 16.4089 2.8045 15.4871 3.40648 14.952L16.5315 3.28535ZM8.75034 14.1043V27.7087H13.1253V20.417C13.1253 19.6116 13.7783 18.9587 14.5837 18.9587H20.417C21.2224 18.9587 21.8753 19.6116 21.8753 20.417V27.7087H26.2503V14.1043L17.5003 6.32651L8.75034 14.1043ZM18.9587 27.7087V21.8753H16.042V27.7087H18.9587Z" fill="#868686"/>
</svg>
