<svg width="35" height="35" viewBox="0 0 35 35" fill="none" xmlns="http://www.w3.org/2000/svg">
<path d="M5.83301 10.2083C5.83301 9.40292 6.48593 8.75 7.29134 8.75H8.74967C9.55509 8.75 10.208 9.40292 10.208 10.2083C10.208 11.0137 9.55509 11.6667 8.74967 11.6667H7.29134C6.48593 11.6667 5.83301 11.0137 5.83301 10.2083ZM13.1247 10.2083C13.1247 9.40292 13.7776 8.75 14.583 8.75H27.708C28.5134 8.75 29.1663 9.40292 29.1663 10.2083C29.1663 11.0137 28.5134 11.6667 27.708 11.6667H14.583C13.7776 11.6667 13.1247 11.0137 13.1247 10.2083ZM5.83301 17.5C5.83301 16.6946 6.48593 16.0417 7.29134 16.0417H8.74967C9.55509 16.0417 10.208 16.6946 10.208 17.5C10.208 18.3054 9.55509 18.9583 8.74967 18.9583H7.29134C6.48593 18.9583 5.83301 18.3054 5.83301 17.5ZM13.1247 17.5C13.1247 16.6946 13.7776 16.0417 14.583 16.0417H27.708C28.5134 16.0417 29.1663 16.6946 29.1663 17.5C29.1663 18.3054 28.5134 18.9583 27.708 18.9583H14.583C13.7776 18.9583 13.1247 18.3054 13.1247 17.5ZM5.83301 24.7917C5.83301 23.9863 6.48593 23.3333 7.29134 23.3333H8.74967C9.55509 23.3333 10.208 23.9863 10.208 24.7917C10.208 25.5971 9.55509 26.25 8.74967 26.25H7.29134C6.48593 26.25 5.83301 25.5971 5.83301 24.7917ZM13.1247 24.7917C13.1247 23.9863 13.7776 23.3333 14.583 23.3333H27.708C28.5134 23.3333 29.1663 23.9863 29.1663 24.7917C29.1663 25.5971 28.5134 26.25 27.708 26.25H14.583C13.7776 26.25 13.1247 25.5971 13.1247 24.7917Z" fill="#0D0D0D" fill-opacity="0.5"/>
</svg>
