<svg width="35" height="35" viewBox="0 0 35 35" fill="none" xmlns="http://www.w3.org/2000/svg">
<path d="M17.4997 2.91699C11.083 2.91699 5.83301 8.16699 5.83301 14.5837C5.83301 22.4587 16.0413 31.3545 16.4788 31.792C16.7705 31.9378 17.208 32.0837 17.4997 32.0837C17.7913 32.0837 18.2288 31.9378 18.5205 31.792C18.958 31.3545 29.1663 22.4587 29.1663 14.5837C29.1663 8.16699 23.9163 2.91699 17.4997 2.91699ZM17.4997 28.7295C14.4372 25.8128 8.74967 19.542 8.74967 14.5837C8.74967 9.77116 12.6872 5.83366 17.4997 5.83366C22.3122 5.83366 26.2497 9.77116 26.2497 14.5837C26.2497 19.3962 20.5622 25.8128 17.4997 28.7295ZM17.4997 8.75033C14.2913 8.75033 11.6663 11.3753 11.6663 14.5837C11.6663 17.792 14.2913 20.417 17.4997 20.417C20.708 20.417 23.333 17.792 23.333 14.5837C23.333 11.3753 20.708 8.75033 17.4997 8.75033ZM17.4997 17.5003C15.8955 17.5003 14.583 16.1878 14.583 14.5837C14.583 12.9795 15.8955 11.667 17.4997 11.667C19.1038 11.667 20.4163 12.9795 20.4163 14.5837C20.4163 16.1878 19.1038 17.5003 17.4997 17.5003Z" fill="#0D0D0D" fill-opacity="0.5"/>
</svg>
