<svg xmlns="http://www.w3.org/2000/svg" viewBox="0 0 226.03 146.87"><defs><style>.cls-1,.cls-2{fill:#ece70e;stroke:#6252a3;}.cls-1,.cls-2,.cls-5,.cls-6,.cls-7,.cls-8{stroke-miterlimit:10;}.cls-1{stroke-width:7px;}.cls-2{stroke-width:3.22px;}.cls-3{font-size:36px;fill:#231f20;font-family:Rajdhani-Regular, Rajdhani;}.cls-4{fill:#00a651;}.cls-5{fill:#ee1c4e;}.cls-5,.cls-6,.cls-7,.cls-8{stroke:#231f20;stroke-width:0.54px;}.cls-6{fill:#3b56a6;}.cls-7{fill:#6cbe45;}.cls-8{fill:#dbe11f;}</style></defs><g id="Layer_2" data-name="Layer 2"><g id="Layer_1-2" data-name="Layer 1"><line class="cls-1" x1="50.01" y1="35.21" x2="88.25" y2="2.67"/><line class="cls-1" x1="84.08" y1="2.91" x2="122.68" y2="34.96"/><polygon class="cls-2" points="60.23 28.62 52.43 68.72 59.12 80.34 70.09 77.63 66.12 24.64 60.23 28.62"/><path class="cls-2" d="M81.45,75.26,71.11,60.94l-.64-8.44c-1.84-4.49-4.35-4-7.32,0V67.3l6.68,10.34Z"/><polygon class="cls-2" points="104.52 78.94 118.79 60.18 116.46 32.57 106.01 24.8 105.1 37.5 96.75 77.59 104.52 78.94"/><path class="cls-2" d="M87.16,76.5l17.18-26.22.8-8.59c2.59-4.62,5.29-4.29,8.09,0l-.93,15-8.42,13.55-3.69,7.25Z"/><text class="cls-3" transform="translate(0 119.01)">Giving Hand</text><path class="cls-4" d="M128,85.92c-.38,1.43-16.32-4.53-41.83-4.83C58.36,80.76,41,87.41,40.58,85.92c-.44-1.64,20.17-12.58,45.56-12.07C109.54,74.32,128.4,84.34,128,85.92Z"/><rect class="cls-5" x="76.8" y="24.87" width="7.48" height="7.48"/><rect class="cls-6" x="87.83" y="24.87" width="7.48" height="7.48"/><rect class="cls-7" x="76.8" y="35.77" width="7.48" height="7.48"/><rect class="cls-8" x="87.83" y="35.62" width="7.48" height="7.48"/></g></g></svg>