<?xml version="1.0" encoding="utf-8"?>
<!-- Generator: Adobe Illustrator 25.0.1, SVG Export Plug-In . SVG Version: 6.00 Build 0)  -->
<svg version="1.1" id="Layer_1" xmlns="http://www.w3.org/2000/svg" xmlns:xlink="http://www.w3.org/1999/xlink" x="0px" y="0px"
	 viewBox="0 0 170.3 131.1" style="enable-background:new 0 0 170.3 131.1;" xml:space="preserve">
<style type="text/css">
	.st0{fill:none;stroke:#6252A3;stroke-width:7;stroke-miterlimit:10;}
	.st1{fill:#ECE70E;stroke:#6252A3;stroke-width:3.22;stroke-miterlimit:10;}
	.st2{fill:#231F20;}
	.st3{font-family:'Rajdhani-Regular';}
	.st4{font-size:36px;}
	.st5{fill:#00A651;}
	.st6{fill:#EE1C4E;stroke:#231F20;stroke-width:0.54;stroke-miterlimit:10;}
	.st7{fill:#3B56A6;stroke:#231F20;stroke-width:0.54;stroke-miterlimit:10;}
	.st8{fill:#6CBE45;stroke:#231F20;stroke-width:0.54;stroke-miterlimit:10;}
	.st9{fill:#DBE11F;stroke:#231F20;stroke-width:0.54;stroke-miterlimit:10;}
</style>
<g id="Layer_2_1_">
	<g id="Layer_1-2">
		<line class="st0" x1="49.4" y1="39.9" x2="87.7" y2="7.3"/>
		<line class="st0" x1="83.5" y1="7.6" x2="122.1" y2="39.6"/>
		<polygon class="st1" points="59.7,33.3 51.9,73.4 58.6,85 69.5,82.3 65.6,29.3 		"/>
		<path class="st1" d="M80.9,79.9L70.5,65.6l-0.6-8.4c-1.8-4.5-4.3-4-7.3,0V72l6.7,10.3L80.9,79.9z"/>
		<polygon class="st1" points="104,83.6 118.2,64.8 115.9,37.2 105.4,29.5 104.5,42.2 96.2,82.2 		"/>
		<path class="st1" d="M86.6,81.2l17.2-26.2l0.8-8.6c2.6-4.6,5.3-4.3,8.1,0l-0.9,15l-8.4,13.6l-3.7,7.2L86.6,81.2z"/>
		<text transform="matrix(1 0 0 1 -0.5618 123.6617)" class="st2 st3 st4">Giving Hand</text>
		<path class="st5" d="M127.4,90.6c-0.4,1.4-16.3-4.5-41.8-4.8c-27.8-0.3-45.2,6.3-45.6,4.8C39.6,88.9,60.2,78,85.6,78.5
			C109,79,127.8,89,127.4,90.6z"/>
		<rect x="76.2" y="29.5" class="st6" width="7.5" height="7.5"/>
		<rect x="87.3" y="29.5" class="st7" width="7.5" height="7.5"/>
		<rect x="76.2" y="40.4" class="st8" width="7.5" height="7.5"/>
		<rect x="87.3" y="40.3" class="st9" width="7.5" height="7.5"/>
	</g>
</g>
</svg>
