<svg width="186" height="112" viewBox="0 0 186 112" fill="none" xmlns="http://www.w3.org/2000/svg">
<g clip-path="url(#clip0)">
<path d="M51.0145 111.853L46.1836 98.2775C46.1836 98.2775 51.4976 100.944 51.7392 104.338C51.7392 104.338 50.5314 87.3689 48.116 83.7327C48.116 83.7327 51.9807 84.2176 56.3286 103.126C56.3286 103.126 57.0532 81.3086 50.5314 75.0059C50.5314 75.0059 59.4687 82.2783 60.1933 98.0351V111.853H51.0145Z" fill="#F2F2F2"/>
<path d="M141.614 111.853L140.452 108.589C140.452 108.589 141.73 109.23 141.788 110.046C141.788 110.046 141.498 105.966 140.917 105.091C140.917 105.091 141.846 105.208 142.891 109.754C142.891 109.754 143.066 104.509 141.498 102.993C141.498 102.993 143.646 104.742 143.821 108.53V111.853L141.614 111.853Z" fill="#F2F2F2"/>
<path d="M120.095 83.7799C131.823 83.7799 141.331 74.2381 141.331 62.4676C141.331 50.6971 131.823 41.1553 120.095 41.1553C108.366 41.1553 98.8584 50.6971 98.8584 62.4676C98.8584 74.2381 108.366 83.7799 120.095 83.7799Z" fill="#F2F2F2"/>
<path d="M50.0882 1.61719H0V29.5437H50.0882V1.61719Z" fill="#F2F2F2"/>
<path d="M118.044 1.61719H67.9561V29.5437H118.044V1.61719Z" fill="#F2F2F2"/>
<path d="M186 1.61719H135.912V29.5437H186V1.61719Z" fill="#F2F2F2"/>
<path d="M128.757 111.93C128.724 111.875 127.931 110.547 127.656 107.789C127.404 105.259 127.566 100.995 129.77 95.0462C133.945 83.777 128.808 74.6844 128.755 74.5938L129.009 74.4463C129.022 74.4693 130.348 76.7875 131.131 80.479C132.165 85.3731 131.789 90.4618 130.045 95.1487C125.877 106.399 128.975 111.724 129.007 111.777L128.757 111.93Z" fill="#3F3D56"/>
<path d="M127.125 73.9319C128.176 73.9319 129.029 73.0764 129.029 72.0211C129.029 70.9658 128.176 70.1104 127.125 70.1104C126.073 70.1104 125.221 70.9658 125.221 72.0211C125.221 73.0764 126.073 73.9319 127.125 73.9319Z" fill="#009966"/>
<path d="M133.13 80.9865C134.181 80.9865 135.033 80.1311 135.033 79.0758C135.033 78.0205 134.181 77.165 133.13 77.165C132.078 77.165 131.226 78.0205 131.226 79.0758C131.226 80.1311 132.078 80.9865 133.13 80.9865Z" fill="#3F3D56"/>
<path d="M129.028 85.6907C130.079 85.6907 130.932 84.8352 130.932 83.7799C130.932 82.7246 130.079 81.8691 129.028 81.8691C127.976 81.8691 127.124 82.7246 127.124 83.7799C127.124 84.8352 127.976 85.6907 129.028 85.6907Z" fill="#009966"/>
<path d="M134.007 89.6584C135.059 89.6584 135.911 88.803 135.911 87.7477C135.911 86.6924 135.059 85.8369 134.007 85.8369C132.956 85.8369 132.104 86.6924 132.104 87.7477C132.104 88.803 132.956 89.6584 134.007 89.6584Z" fill="#009966"/>
<path d="M127.564 95.8323C128.616 95.8323 129.468 94.9768 129.468 93.9215C129.468 92.8662 128.616 92.0107 127.564 92.0107C126.513 92.0107 125.66 92.8662 125.66 93.9215C125.66 94.9768 126.513 95.8323 127.564 95.8323Z" fill="#3F3D56"/>
<path d="M129.907 112C129.907 112 128.003 107.296 133.715 103.769L129.907 112Z" fill="#3F3D56"/>
<path d="M127.565 111.915C127.565 111.915 126.699 106.913 119.992 106.956L127.565 111.915Z" fill="#3F3D56"/>
<path d="M50.014 0H0.0722656V2.49869H50.014V0Z" fill="#3F3D56"/>
<path d="M118.117 0H68.0293V2.49869H118.117V0Z" fill="#3F3D56"/>
<path d="M185.927 0H135.985V2.49869H185.927V0Z" fill="#3F3D56"/>
<path d="M12.8879 6.39355H3.80762V12.8607H12.8879V6.39355Z" fill="white"/>
<path d="M46.2804 6.39355H21.2363V7.12846H46.2804V6.39355Z" fill="white"/>
<path d="M46.2804 9.33301H21.2363V10.0679H46.2804V9.33301Z" fill="white"/>
<path d="M46.2804 12.2734H21.2363V13.0083H46.2804V12.2734Z" fill="white"/>
<path d="M80.844 6.39355H71.7637V12.8607H80.844V6.39355Z" fill="white"/>
<path d="M114.236 6.39355H89.1924V7.12846H114.236V6.39355Z" fill="white"/>
<path d="M114.236 9.33301H89.1924V10.0679H114.236V9.33301Z" fill="white"/>
<path d="M114.236 12.2734H89.1924V13.0083H114.236V12.2734Z" fill="white"/>
<path d="M148.8 6.39355H139.72V12.8607H148.8V6.39355Z" fill="white"/>
<path d="M182.193 6.39355H157.148V7.12846H182.193V6.39355Z" fill="white"/>
<path d="M182.193 9.33301H157.148V10.0679H182.193V9.33301Z" fill="white"/>
<path d="M182.193 12.2734H157.148V13.0083H182.193V12.2734Z" fill="white"/>
<path d="M8.34808 12.64C9.96579 12.64 11.2772 11.3239 11.2772 9.70038C11.2772 8.07686 9.96579 6.76074 8.34808 6.76074C6.73036 6.76074 5.41895 8.07686 5.41895 9.70038C5.41895 11.3239 6.73036 12.64 8.34808 12.64Z" fill="#009966"/>
<path d="M144.26 12.64C145.878 12.64 147.189 11.3239 147.189 9.70038C147.189 8.07686 145.878 6.76074 144.26 6.76074C142.642 6.76074 141.331 8.07686 141.331 9.70038C141.331 11.3239 142.642 12.64 144.26 12.64Z" fill="#009966"/>
<path d="M23.3994 29.543H23.1064V30.4249H23.3994V29.543Z" fill="#3F3D56"/>
<path d="M23.3994 65.7013H23.1064V63.9375H23.3994V65.7013ZM23.3994 62.1737H23.1064V60.4099H23.3994V62.1737ZM23.3994 58.6461H23.1064V56.8824H23.3994V58.6461ZM23.3994 55.1186H23.1064V53.3548H23.3994V55.1186ZM23.3994 51.591H23.1064V49.8272H23.3994V51.591ZM23.3994 48.0635H23.1064V46.2997H23.3994V48.0635ZM23.3994 44.5359H23.1064V42.7721H23.3994V44.5359ZM23.3994 41.0083H23.1064V39.2446H23.3994V41.0083ZM23.3994 37.4808H23.1064V35.717H23.3994V37.4808ZM23.3994 33.9532H23.1064V32.1895H23.3994V33.9532Z" fill="#3F3D56"/>
<path d="M24.1316 68.4937H23.1064V67.4648H23.3993V68.1996H24.1316V68.4937Z" fill="#3F3D56"/>
<path d="M158.312 68.4932H156.546V68.1992H158.312V68.4932ZM154.781 68.4932H153.015V68.1992H154.781V68.4932ZM151.25 68.4932H149.484V68.1992H151.25V68.4932ZM147.719 68.4932H145.953V68.1992H147.719V68.4932ZM144.188 68.4932H142.422V68.1992H144.188V68.4932ZM140.657 68.4932H138.891V68.1992H140.657V68.4932ZM137.126 68.4932H135.36V68.1992H137.126V68.4932ZM133.594 68.4932H131.829V68.1992H133.594V68.4932ZM130.063 68.4932H128.298V68.1992H130.063V68.4932ZM126.532 68.4932H124.767V68.1992H126.532L126.532 68.4932ZM123.001 68.4932H121.236V68.1992H123.001V68.4932ZM119.47 68.4932H117.705V68.1992H119.47V68.4932ZM115.939 68.4932H114.174V68.1992H115.939V68.4932ZM112.408 68.4932H110.643V68.1992H112.408V68.4932ZM108.877 68.4932H107.112V68.1992H108.877V68.4932ZM105.346 68.4932H103.581V68.1992H105.346V68.4932ZM101.815 68.4932H100.049V68.1992H101.815V68.4932ZM98.2839 68.4932H96.5184V68.1992H98.2839V68.4932ZM94.7529 68.4932H92.9874V68.1992H94.7529V68.4932ZM91.2219 68.4932H89.4563V68.1992H91.2219V68.4932ZM87.6908 68.4932H85.9253V68.1992H87.6908V68.4932ZM84.1598 68.4932H82.3942V68.1992H84.1598V68.4932ZM80.6287 68.4932H78.8632V68.1992H80.6287V68.4932ZM77.0977 68.4932H75.3321V68.1992H77.0977V68.4932ZM73.5666 68.4932H71.8011V68.1992H73.5666V68.4932ZM70.0356 68.4932H68.27V68.1992H70.0356V68.4932ZM66.5045 68.4932H64.739V68.1992H66.5045V68.4932ZM62.9735 68.4932H61.2079V68.1992H62.9735V68.4932ZM59.4424 68.4932H57.6769V68.1992H59.4424V68.4932ZM55.9114 68.4932H54.1458V68.1992H55.9114V68.4932ZM52.3803 68.4932H50.6147V68.1992H52.3803V68.4932ZM48.8493 68.4932H47.0838V68.1992H48.8493V68.4932ZM45.3182 68.4932H43.5527V68.1992H45.3182V68.4932ZM41.7872 68.4932H40.0217V68.1992H41.7872V68.4932ZM38.2561 68.4932H36.4906V68.1992H38.2561V68.4932ZM34.7251 68.4932H32.9596V68.1992H34.7251V68.4932ZM31.194 68.4932H29.4285V68.1992H31.194V68.4932ZM27.663 68.4932H25.8975V68.1992H27.663L27.663 68.4932Z" fill="#3F3D56"/>
<path d="M161.102 68.4937H160.077V68.1996H160.809V67.4648H161.102V68.4937Z" fill="#3F3D56"/>
<path d="M161.102 65.7013H160.81V63.9375H161.102V65.7013ZM161.102 62.1737H160.81V60.4099H161.102V62.1737ZM161.102 58.6461H160.81V56.8824H161.102V58.6461ZM161.102 55.1186H160.81V53.3548H161.102V55.1186ZM161.102 51.591H160.81V49.8272H161.102V51.591ZM161.102 48.0635H160.81V46.2997H161.102V48.0635ZM161.102 44.5359H160.81V42.7721H161.102V44.5359ZM161.102 41.0083H160.81V39.2446H161.102V41.0083ZM161.102 37.4808H160.81V35.717H161.102V37.4808ZM161.102 33.9532H160.81V32.1895H161.102V33.9532Z" fill="#3F3D56"/>
<path d="M161.102 29.543H160.81V30.4249H161.102V29.543Z" fill="#3F3D56"/>
<path d="M118.044 59.5273H67.9561V111.853H118.044V59.5273Z" fill="#3F3D56"/>
<path d="M80.844 66.3623H71.7637V72.8295H80.844V66.3623Z" fill="white"/>
<path d="M114.236 66.3623H89.1924V67.0972H114.236V66.3623Z" fill="white"/>
<path d="M114.236 69.3018H89.1924V70.0367H114.236V69.3018Z" fill="white"/>
<path d="M114.236 72.2412H89.1924V72.9761H114.236V72.2412Z" fill="white"/>
<path d="M80.844 89.6592H71.7637V96.1264H80.844V89.6592Z" fill="white"/>
<path d="M114.236 89.6592H89.1924V90.3941H114.236V89.6592Z" fill="white"/>
<path d="M114.236 92.5986H89.1924V93.3335H114.236V92.5986Z" fill="white"/>
<path d="M114.236 95.5381H89.1924V96.273H114.236V95.5381Z" fill="white"/>
<path d="M76.3426 71.231L73.2344 67.072L73.9707 66.5179L76.5027 69.906L82.9567 64.6602L83.5395 65.375L76.3426 71.231Z" fill="#009966"/>
<path d="M76.3426 94.3073L73.2344 90.1483L73.9707 89.5942L76.5027 92.9822L82.9567 87.7363L83.5395 88.4513L76.3426 94.3073Z" fill="#009966"/>
<path d="M182.192 111.706H1.31836V112H182.192V111.706Z" fill="#3F3D56"/>
<path d="M99.3047 31.1599C99.3047 31.1599 104.138 29.0464 106.408 31.279C108.678 33.5116 100.33 32.7767 99.3047 31.1599Z" fill="#3F3D56"/>
<path d="M107.65 21.1371C106.026 18.3829 102.813 18.2545 102.813 18.2545C102.813 18.2545 99.6814 17.8527 97.6728 22.0474C95.8005 25.9572 93.2166 29.7321 97.2568 30.6474L97.9865 28.3679L98.4385 30.8171C99.0137 30.8586 99.5908 30.8685 100.167 30.8467C104.494 30.7066 108.614 30.8878 108.482 29.3296C108.305 27.2583 109.213 23.7872 107.65 21.1371Z" fill="#2F2E41"/>
<path d="M109.923 71.0654C109.923 71.0654 107.872 74.887 106.554 74.887C105.236 74.887 105.383 77.3857 105.676 77.9736C105.969 78.5615 106.701 79.8844 105.529 81.7951C105.12 82.4625 105.193 83.2196 105.462 83.9223C106.214 85.8912 109.141 85.2947 109.048 83.1881C109.047 83.1648 109.046 83.1415 109.044 83.118C108.898 80.7662 110.069 77.0917 111.241 76.2098C112.413 75.3279 113.438 72.9762 113.438 72.9762L109.923 71.0654Z" fill="#FFB8B8"/>
<path d="M95.8626 70.1836C95.8626 70.1836 97.913 74.0051 99.2311 74.0051C100.549 74.0051 100.403 76.5038 100.11 77.0917C99.8169 77.6796 99.0847 79.0025 100.256 80.9132C100.666 81.5807 100.592 82.3378 100.324 83.0405C99.5713 85.0093 96.6442 84.4128 96.7376 82.3062C96.7386 82.283 96.7399 82.2596 96.7414 82.2361C96.8878 79.8844 95.7162 76.2098 94.5445 75.3279C93.3728 74.4461 92.3477 72.0943 92.3477 72.0943L95.8626 70.1836Z" fill="#FFB8B8"/>
<path d="M97.4743 51.3697L96.5955 53.2805C96.5955 53.2805 83.7074 57.543 84.879 62.5403C86.0507 67.5377 91.7625 75.3277 92.6412 75.0338C93.52 74.7398 98.2066 73.8579 98.353 71.3592C98.4995 68.8605 94.9845 64.4511 94.9845 64.4511L99.8176 60.0417L106.85 59.8947L112.852 64.4511C112.852 64.4511 106.555 70.0364 109.337 72.2411C112.12 74.4459 116.221 75.9157 116.807 75.0338C117.392 74.1519 123.983 61.0705 122.958 59.8947C121.933 58.7188 111.534 54.3094 111.534 54.3094L108.751 50.3409L97.9137 49.7529L97.4743 51.3697Z" fill="#2F2E41"/>
<path d="M100.11 27.1183C100.11 27.1183 100.843 31.9687 99.378 32.5567C97.9134 33.1446 102.307 35.6433 102.307 35.6433H104.797L106.408 32.2627C106.408 32.2627 104.943 29.617 105.822 27.1183C106.701 24.6197 100.11 27.1183 100.11 27.1183Z" fill="#FFB8B8"/>
<path opacity="0.1" d="M100.11 27.1183C100.11 27.1183 100.843 31.9687 99.378 32.5567C97.9134 33.1446 102.307 35.6433 102.307 35.6433H104.797L106.408 32.2627C106.408 32.2627 104.943 29.617 105.822 27.1183C106.701 24.6197 100.11 27.1183 100.11 27.1183Z" fill="black"/>
<path d="M99.0847 31.2334C99.0847 31.2334 100.696 32.9972 100.989 33.2911C101.282 33.5851 102.6 35.2019 105.382 32.8502C108.165 30.4985 108.458 33.2911 108.458 33.2911V50.9289C108.458 50.9289 106.115 49.9001 104.211 50.9289C102.307 51.9578 98.3524 50.635 98.3524 50.635L97.6201 32.4093L99.0847 31.2334Z" fill="white"/>
<path d="M100.161 31.234C100.161 31.234 98.7925 30.646 97.6208 31.234C96.4491 31.8219 92.3484 34.7615 92.6413 36.0844C92.9342 37.4072 96.7421 46.667 94.1059 51.0765C91.4696 55.4859 91.0303 56.6618 91.0303 56.6618L97.4744 53.2812C97.4744 53.2812 102.454 50.1946 102.015 48.2838C101.575 46.3731 100.161 31.234 100.161 31.234Z" fill="#009966"/>
<path d="M105.97 31.2334C105.97 31.2334 109.044 31.5274 109.19 31.8213C109.337 32.1153 113.803 33.3646 113.511 34.6875C113.218 36.0103 109.19 47.8423 110.948 50.047C112.705 52.2518 115.634 55.3384 114.609 55.6324C113.584 55.9263 111.826 55.1914 110.069 55.6324C108.311 56.0733 104.211 52.3988 104.65 48.4303C105.089 44.4617 104.653 32.2623 105.97 31.2334Z" fill="#009966"/>
<path d="M98.6454 59.3072V60.777C98.6454 60.777 97.9131 64.1576 100.256 64.0106C102.6 63.8636 101.135 59.8951 101.135 59.8951L100.989 58.5723L98.6454 59.3072Z" fill="#FFB8B8"/>
<path d="M105.237 59.4541C105.237 59.4541 103.625 62.8347 105.237 63.1286C106.848 63.4226 108.019 61.2179 108.019 60.63C108.019 60.042 105.237 59.4541 105.237 59.4541Z" fill="#FFB8B8"/>
<path d="M107.359 25.7218C107.521 25.7218 107.652 25.4585 107.652 25.1338C107.652 24.8091 107.521 24.5459 107.359 24.5459C107.198 24.5459 107.066 24.8091 107.066 25.1338C107.066 25.4585 107.198 25.7218 107.359 25.7218Z" fill="#FFB8B8"/>
<path d="M98.7187 25.7218C98.8805 25.7218 99.0116 25.4585 99.0116 25.1338C99.0116 24.8091 98.8805 24.5459 98.7187 24.5459C98.5569 24.5459 98.4258 24.8091 98.4258 25.1338C98.4258 25.4585 98.5569 25.7218 98.7187 25.7218Z" fill="#FFB8B8"/>
<path d="M109.923 33.1445C109.923 33.1445 113.584 33.1445 113.438 34.6143C113.291 36.0842 108.458 61.365 108.458 61.365C108.458 61.365 106.408 59.4543 104.65 59.8952L109.923 33.1445Z" fill="#009966"/>
<path d="M95.7161 33.585C95.7161 33.585 92.0547 34.3199 92.0547 36.5246C92.0547 38.7293 97.3271 59.8947 98.0594 59.8947C98.7917 59.8947 101.574 59.4537 101.574 58.7188C101.574 57.9839 95.7161 33.585 95.7161 33.585Z" fill="#009966"/>
<path opacity="0.2" d="M96.5225 37.9209L99.8177 50.854C99.8177 50.854 98.28 39.5377 96.5225 37.9209Z" fill="black"/>
<path opacity="0.2" d="M109.34 36.1045L106.007 53.0138C106.007 53.0138 107.072 37.0799 109.34 36.1045Z" fill="black"/>
<path d="M103.039 29.4703C105.385 29.4703 107.286 27.5619 107.286 25.2078C107.286 22.8537 105.385 20.9453 103.039 20.9453C100.694 20.9453 98.792 22.8537 98.792 25.2078C98.792 27.5619 100.694 29.4703 103.039 29.4703Z" fill="#FFB8B8"/>
<path d="M106.932 20.871L103.758 19.2021L99.3738 19.8848L98.4668 23.9052L100.725 23.8181L101.355 22.3411V23.7938L102.397 23.7535L103.002 21.4019L103.38 23.9052L107.084 23.8295L106.932 20.871Z" fill="#2F2E41"/>
</g>
<defs>
<clipPath id="clip0">
<rect width="186" height="112" fill="white"/>
</clipPath>
</defs>
</svg>
