<svg width="25" height="25" viewBox="0 0 25 25" fill="none" xmlns="http://www.w3.org/2000/svg">
<g clip-path="url(#clip0)">
<path d="M24.6562 4.71191L17.0507 0C16.2655 1.35742 14.5273 2.30469 12.4999 2.30469C10.4726 2.30469 8.73429 1.35742 7.94913 0L0.343661 4.71191C0.0350677 4.90723 -0.0899323 5.37598 0.0624115 5.76172L2.29679 11.3525C2.45304 11.7383 2.82804 11.8945 3.13663 11.7041L5.34757 10.3516C5.76163 10.0977 6.24601 10.4736 6.24601 11.0547V23.4375C6.24601 24.3018 6.8046 25 7.49601 25H17.496C18.1874 25 18.746 24.3018 18.746 23.4375V11.0498C18.746 10.4736 19.2304 10.0928 19.6444 10.3467L21.8554 11.6992C22.164 11.8945 22.539 11.7383 22.6952 11.3477L24.9335 5.76172C25.0898 5.37598 24.9648 4.90234 24.6562 4.71191V4.71191Z" fill="black" fill-opacity="0.27"/>
</g>
<defs>
<clipPath id="clip0">
<rect width="25" height="25" fill="white"/>
</clipPath>
</defs>
</svg>
