<svg width="25" height="25" viewBox="0 0 25 25" fill="none" xmlns="http://www.w3.org/2000/svg">
<path d="M15.3404 7.8125H5.49249C4.45262 7.81247 3.45032 8.10405 2.68247 8.62996C1.91462 9.15587 1.43672 9.8781 1.34264 10.6548L0.0170871 21.5923C-0.0352877 22.0247 0.0330568 22.4605 0.217762 22.872C0.402468 23.2835 0.699482 23.6616 1.08986 23.9823C1.48025 24.3029 1.95543 24.559 2.48511 24.7342C3.0148 24.9094 3.58736 24.9999 4.16628 25H16.6666C17.2456 25 17.8182 24.9095 18.348 24.7343C18.8777 24.5591 19.353 24.3031 19.7435 23.9824C20.1339 23.6618 20.431 23.2837 20.6157 22.8721C20.8005 22.4606 20.8688 22.0247 20.8165 21.5923L19.4909 10.6548C19.3968 9.87802 18.9188 9.15572 18.1508 8.6298C17.3828 8.10387 16.3804 7.81235 15.3404 7.8125ZM10.4164 20.3125C8.26014 20.3125 6.51009 19.0269 6.51009 17.4438C6.51009 16.2231 8.83437 13.7588 9.8956 12.6943C9.95634 12.6338 10.0351 12.5846 10.1255 12.5508C10.216 12.517 10.3157 12.4994 10.4168 12.4995C10.5178 12.4996 10.6175 12.5173 10.7078 12.5513C10.7982 12.5853 10.8767 12.6346 10.9373 12.6953C12.0005 13.7598 14.3228 16.2241 14.3228 17.4448C14.3228 19.0269 12.5728 20.3125 10.4164 20.3125ZM24.6948 4.59277L21.8751 2.47754C21.0937 1.89164 20.034 1.5625 18.929 1.5625H14.5832C14.5832 1.1481 14.3637 0.750671 13.973 0.457646C13.5823 0.16462 13.0524 0 12.4998 0L8.33306 0C7.78051 0 7.25059 0.16462 6.85988 0.457646C6.46917 0.750671 6.24967 1.1481 6.24967 1.5625V6.25H14.5832V4.6875H18.929L21.7488 6.80225C21.8455 6.87481 21.9604 6.93237 22.0868 6.97165C22.2132 7.01092 22.3486 7.03113 22.4854 7.03113C22.6223 7.03113 22.7577 7.01092 22.8841 6.97165C23.0105 6.93237 23.1254 6.87481 23.2221 6.80225L24.6948 5.69775C24.7916 5.62521 24.8683 5.53907 24.9207 5.44428C24.973 5.34948 25 5.24787 25 5.14526C25 5.04265 24.973 4.94105 24.9207 4.84625C24.8683 4.75145 24.7916 4.66532 24.6948 4.59277Z" fill="black" fill-opacity="0.27"/>
</svg>
