<svg width="25" height="25" viewBox="0 0 25 25" fill="none" xmlns="http://www.w3.org/2000/svg">
<path d="M22.6562 12.5H2.34375C1.72215 12.5 1.12601 12.7822 0.686468 13.2845C0.24693 13.7869 0 14.4682 0 15.1786C0 15.889 0.24693 16.5703 0.686468 17.0726C1.12601 17.5749 1.72215 17.8571 2.34375 17.8571H22.6562C23.2779 17.8571 23.874 17.5749 24.3135 17.0726C24.7531 16.5703 25 15.889 25 15.1786C25 14.4682 24.7531 13.7869 24.3135 13.2845C23.874 12.7822 23.2779 12.5 22.6562 12.5V12.5ZM23.4375 19.6429H1.5625C1.3553 19.6429 1.15659 19.7369 1.01007 19.9044C0.86356 20.0718 0.78125 20.2989 0.78125 20.5357V21.4286C0.78125 22.3758 1.11049 23.2842 1.69654 23.954C2.28259 24.6237 3.07745 25 3.90625 25H21.0938C21.9226 25 22.7174 24.6237 23.3035 23.954C23.8895 23.2842 24.2188 22.3758 24.2188 21.4286V20.5357C24.2188 20.2989 24.1364 20.0718 23.9899 19.9044C23.8434 19.7369 23.6447 19.6429 23.4375 19.6429ZM2.86328 10.7143H22.1367C23.8247 10.7143 24.8037 8.26451 23.8369 6.47991C21.875 2.85714 17.5562 0.00558036 12.5 0C7.44434 0.00558036 3.125 2.85714 1.16309 6.47935C0.195312 8.26395 1.17529 10.7143 2.86328 10.7143ZM18.75 4.46429C18.9045 4.46429 19.0556 4.51665 19.184 4.61476C19.3125 4.71287 19.4126 4.85231 19.4718 5.01546C19.5309 5.17861 19.5464 5.35813 19.5162 5.53133C19.4861 5.70453 19.4117 5.86362 19.3024 5.98849C19.1932 6.11336 19.054 6.19839 18.9024 6.23284C18.7509 6.2673 18.5938 6.24961 18.451 6.18204C18.3083 6.11446 18.1863 6.00002 18.1004 5.85319C18.0146 5.70636 17.9688 5.53373 17.9688 5.35714C17.9688 5.12034 18.0511 4.89324 18.1976 4.7258C18.3441 4.55835 18.5428 4.46429 18.75 4.46429V4.46429ZM12.5 2.67857C12.6545 2.67857 12.8056 2.73094 12.934 2.82905C13.0625 2.92715 13.1626 3.0666 13.2218 3.22975C13.2809 3.3929 13.2964 3.57242 13.2662 3.74562C13.2361 3.91881 13.1617 4.07791 13.0524 4.20277C12.9432 4.32764 12.804 4.41268 12.6524 4.44713C12.5009 4.48158 12.3438 4.4639 12.201 4.39632C12.0583 4.32874 11.9363 4.2143 11.8504 4.06747C11.7646 3.92064 11.7188 3.74802 11.7188 3.57143C11.7188 3.33463 11.8011 3.10753 11.9476 2.94008C12.0941 2.77264 12.2928 2.67857 12.5 2.67857V2.67857ZM6.25 4.46429C6.40452 4.46429 6.55556 4.51665 6.68404 4.61476C6.81252 4.71287 6.91265 4.85231 6.97178 5.01546C7.03091 5.17861 7.04638 5.35813 7.01624 5.53133C6.98609 5.70453 6.91169 5.86362 6.80243 5.98849C6.69317 6.11336 6.55396 6.19839 6.40241 6.23284C6.25087 6.2673 6.09378 6.24961 5.95103 6.18204C5.80827 6.11446 5.68626 6.00002 5.60041 5.85319C5.51457 5.70636 5.46875 5.53373 5.46875 5.35714C5.46875 5.12034 5.55106 4.89324 5.69757 4.7258C5.84409 4.55835 6.0428 4.46429 6.25 4.46429V4.46429Z" fill="black" fill-opacity="0.27"/>
</svg>
