<svg width="153" height="176" viewBox="0 0 153 176" fill="none" xmlns="http://www.w3.org/2000/svg">
<path d="M106.797 139.992C134.343 118.862 144.942 82.1411 132.057 49.9049C125.246 32.8639 111.984 17.5444 86.8188 13.0462C77.9176 11.4544 70.2469 11.5428 63.6332 12.8809C36.8245 18.2951 25.0634 66.5139 24.363 69.1794C23.9086 70.9061 23.4139 72.6221 22.8787 74.3275C21.0029 80.3005 18.6512 86.1137 15.8459 91.7115C11.8478 99.693 8.11915 110.214 8.92596 120.707C9.0604 122.489 9.33325 124.258 9.74206 125.998C11.162 132.023 12.2905 138.645 18.0544 143.865C22.3795 147.786 28.163 151.338 35.7486 154.316C63.3747 165.16 88.4479 154.067 106.797 139.992Z" fill="#A7A5D3" fill-opacity="0.8"/>
</svg>
