<svg width="378" height="441" viewBox="0 0 378 441" fill="none" xmlns="http://www.w3.org/2000/svg">
<path d="M274.286 350.199C342.11 291.991 364.168 196.099 326.496 115.054C306.581 72.2107 270.331 34.704 205.009 26.6958C181.904 23.8615 162.2 25.1723 145.388 29.5462C77.2421 47.2508 53.8191 172.863 52.395 179.814C51.471 184.316 50.4416 188.798 49.3067 193.257C45.3285 208.876 40.1043 224.151 33.6839 238.937C24.5339 260.019 16.435 287.59 19.9905 314.449C20.5877 319.011 21.5388 323.521 22.8354 327.937C27.336 343.223 31.1718 360.086 46.7247 372.69C58.3956 382.158 73.7636 390.472 93.6825 397.056C166.225 421.028 229.108 388.971 274.286 350.199Z" fill="#F2F2F2" fill-opacity="0.74"/>
</svg>
